<?xml version="1.0" encoding="UTF-8" standalone="no"?>
<!-- Created with Inkscape (http://www.inkscape.org/) -->

<svg
   xmlns:dc="http://purl.org/dc/elements/1.1/"
   xmlns:cc="http://creativecommons.org/ns#"
   xmlns:rdf="http://www.w3.org/1999/02/22-rdf-syntax-ns#"
   xmlns:svg="http://www.w3.org/2000/svg"
   xmlns="http://www.w3.org/2000/svg"
   xmlns:sodipodi="http://sodipodi.sourceforge.net/DTD/sodipodi-0.dtd"
   xmlns:inkscape="http://www.inkscape.org/namespaces/inkscape"
   width="100%"
   preserveAspectRatio="none"
   viewBox="0 0 19.433778 24.366788"
   id="svg4156"
   version="1.1"
   inkscape:version="0.91 r13725"
   sodipodi:docname="apple2.svg">
  <defs
     id="defs4158" />
  <sodipodi:namedview
     id="base"
     pagecolor="#ffffff"
     bordercolor="#666666"
     borderopacity="1.0"
     inkscape:pageopacity="0.0"
     inkscape:pageshadow="2"
     inkscape:zoom="1.979899"
     inkscape:cx="-75.169417"
     inkscape:cy="-32.592501"
     inkscape:document-units="px"
     inkscape:current-layer="layer1"
     showgrid="false"
     fit-margin-top="0"
     fit-margin-left="0"
     fit-margin-right="0"
     fit-margin-bottom="0"
     inkscape:window-width="1366"
     inkscape:window-height="749"
     inkscape:window-x="-4"
     inkscape:window-y="-4"
     inkscape:window-maximized="1" />
  <metadata
     id="metadata4161">
    <rdf:RDF>
      <cc:Work
         rdf:about="">
        <dc:format>image/svg+xml</dc:format>
        <dc:type
           rdf:resource="http://purl.org/dc/dcmitype/StillImage" />
        <dc:title></dc:title>
      </cc:Work>
    </rdf:RDF>
  </metadata>
  <g
     inkscape:label="Capa 1"
     inkscape:groupmode="layer"
     id="layer1"
     transform="translate(-438.85454,-783.03598)">
    <g
       transform="matrix(1,0,0,-1.27119,432.60719,1080.5815)"
       id="g4">
      <g
         style="fill:#ed1c25;stroke:none"
         transform="matrix(0.1,0,0,-0.1,0,236)"
         id="g6">
        <g
           style="stroke-width:20"
           transform="matrix(0.1,0,0,-0.1,0,236)"
           id="g8">
          <path
             d="m 1110,1712 c -57,-4 -163,-38 -215,-70 C 683,1512 583,1224 641,910 673,740 787,553 923,450 c 183,-137 389,-200 656,-200 450,0 828,206 957,520 22,53 27,85 31,180 6,153 -11,230 -82,376 -94,191 -227,311 -385,348 -114,27 -247,21 -400,-18 l -134,-34 -65,24 c -136,51 -271,74 -391,66 z m -76,-128 c 32,-12 17,-52 -48,-122 -73,-80 -84,-97 -100,-161 -13,-53 -42,-63 -64,-21 -35,67 42,236 133,291 31,20 53,23 79,13 z"
             id="path10"
             inkscape:connector-curvature="0" />
        </g>
      </g>
      <g
         style="fill:#8cb13e;stroke:none"
         transform="matrix(0.1,0,0,-0.1,0,236)"
         id="g12">
        <g
           transform="matrix(0.1,0,0,-0.1,0,236)"
           id="g14">
          <path
             d="m 1904,2157 c -8,-21 -112,-103 -178,-141 -72,-42 -126,-95 -152,-150 l -22,-48 -26,54 c -29,62 -120,154 -183,186 -96,49 -183,53 -183,8 0,-19 10,-29 43,-45 24,-12 54,-21 68,-21 66,-1 171,-82 227,-175 23,-39 72,-168 72,-191 0,-2 -12,1 -26,6 -14,6 -31,10 -37,9 -7,0 4,-6 24,-14 34,-12 48,-10 170,22 127,32 141,34 259,30 69,-3 136,-8 150,-11 l 25,-7 -25,12 c -14,7 -80,15 -148,18 l -122,6 47,35 c 90,66 113,161 78,325 -16,74 -48,124 -61,92 z"
             id="path16"
             inkscape:connector-curvature="0" />
        </g>
      </g>
      <g
         style="fill:#ffffff;stroke:none"
         transform="matrix(0.1,0,0,-0.1,0,236)"
         id="g18">
        <g
           style="stroke-width:20"
           transform="matrix(0.1,0,0,-0.1,0,236)"
           id="g20">
          <path
             d="m 975,1574 c -45,-23 -82,-62 -116,-122 -49,-86 -51,-192 -4,-192 6,0 20,28 31,63 15,50 31,76 86,135 69,74 85,113 52,126 -19,7 -14,9 -49,-10 z"
             id="path22"
             inkscape:connector-curvature="0" />
        </g>
      </g>
    </g>
  </g>
</svg>
