<?xml version="1.0" encoding="UTF-8" standalone="no"?>
<!--?xml version="1.0" standalone="no"?-->

<svg
   xmlns:dc="http://purl.org/dc/elements/1.1/"
   xmlns:cc="http://creativecommons.org/ns#"
   xmlns:rdf="http://www.w3.org/1999/02/22-rdf-syntax-ns#"
   xmlns:svg="http://www.w3.org/2000/svg"
   xmlns="http://www.w3.org/2000/svg"
   xmlns:sodipodi="http://sodipodi.sourceforge.net/DTD/sodipodi-0.dtd"
   xmlns:inkscape="http://www.inkscape.org/namespaces/inkscape"
   sodipodi:docname="bird-feather.svg"
   inkscape:version="0.91 r13725"
   id="svg2"
   preserveAspectRatio="none"
   viewBox="0 0 289.85327 260.62567"

   width="100%"
   version="1.0">
  <metadata
     id="metadata25">
    <rdf:RDF>
      <cc:Work
         rdf:about="">
        <dc:format>image/svg+xml</dc:format>
        <dc:type
           rdf:resource="http://purl.org/dc/dcmitype/StillImage" />
        <dc:title></dc:title>
      </cc:Work>
    </rdf:RDF>
  </metadata>
  <defs
     id="defs23" />
  <sodipodi:namedview
     inkscape:current-layer="svg2"
     inkscape:window-maximized="1"
     inkscape:window-y="-4"
     inkscape:window-x="-4"
     inkscape:cy="162.43402"
     inkscape:cx="181.98733"
     inkscape:zoom="0.62933333"
     fit-margin-bottom="0"
     fit-margin-right="0"
     fit-margin-left="0"
     fit-margin-top="0"
     showgrid="false"
     id="namedview21"
     inkscape:window-height="749"
     inkscape:window-width="1366"
     inkscape:pageshadow="2"
     inkscape:pageopacity="0"
     guidetolerance="10"
     gridtolerance="10"
     objecttolerance="10"
     borderopacity="1"
     bordercolor="#666666"
     pagecolor="#ffffff" />
  <g
     transform="matrix(0.1,0,0,-0.1,-4.4101383,280.67846)"
     id="g4"
     style="fill:#ff0000;stroke:none">
    <path
       class="node"
       id="node1"
       d="m 155,2802 c -56,-20 -94,-68 -109,-137 -14,-65 51,-222 143,-350 60,-81 64,-99 22,-90 -67,15 -101,-47 -82,-149 18,-98 105,-229 234,-356 31,-30 57,-60 57,-65 0,-6 -15,-12 -32,-13 -55,-4 -67,-12 -73,-46 -9,-44 10,-111 46,-162 44,-64 167,-172 278,-244 55,-36 100,-68 101,-72 0,-5 -21,-8 -48,-8 -56,0 -92,-21 -92,-54 0,-93 333,-333 718,-517 68,-32 126,-59 128,-59 2,0 28,-11 58,-25 30,-14 58,-25 61,-25 4,0 21,-7 38,-15 56,-26 237,-90 392,-139 83,-26 168,-54 190,-62 64,-22 97,-18 146,19 50,38 150,96 323,187 161,83 270,155 284,185 15,33 2,66 -168,430 -51,110 -81,175 -110,240 -12,28 -53,113 -90,190 -37,77 -71,151 -75,165 -6,24 -32,85 -98,235 -54,121 -156,318 -177,340 -11,12 -20,26 -20,33 0,6 -33,44 -72,85 -79,80 -158,126 -232,134 -54,7 -83,-9 -94,-49 l -8,-31 -64,55 c -79,66 -137,106 -210,144 -47,24 -67,28 -138,29 -88,0 -83,3 -127,-58 -12,-18 -17,-16 -77,30 -77,60 -184,127 -252,159 -68,32 -162,33 -199,3 -38,-29 -51,-87 -32,-141 18,-51 18,-58 5,-58 -6,0 -70,45 -143,100 -157,120 -237,161 -322,166 -33,2 -69,0 -80,-4 z m 135,-45 c 141,-58 419,-248 534,-365 61,-62 82,-90 73,-99 -5,-5 -141,37 -182,56 -21,10 -88,27 -164,40 -57,11 -107,-3 -127,-35 -21,-31 -15,-112 15,-199 11,-33 18,-61 16,-64 -13,-13 -225,219 -291,319 -81,122 -100,238 -50,305 26,34 74,63 106,64 8,0 40,-10 70,-22 z m 637,-47 c 133,-60 350,-273 491,-482 46,-68 39,-76 -21,-25 -108,93 -252,157 -352,157 -54,0 -66,-3 -89,-27 -14,-14 -28,-24 -29,-22 -31,46 -72,95 -114,140 -44,46 -55,65 -67,119 -18,76 -12,114 22,140 32,26 103,26 159,0 z m 522,-144 c 75,-30 188,-107 275,-187 71,-65 189,-231 202,-285 l 7,-29 -24,18 c -157,113 -235,151 -312,151 -49,1 -62,-3 -77,-22 -10,-12 -20,-28 -23,-35 -6,-18 -36,22 -106,138 -90,151 -109,217 -71,255 26,26 58,25 129,-4 z m 533,-169 c 60,-27 140,-104 193,-187 46,-71 109,-200 101,-207 -3,-3 -24,11 -46,31 -23,20 -58,44 -78,53 -20,9 -56,25 -80,36 -32,14 -54,17 -86,13 -42,-7 -44,-6 -67,31 -65,108 -94,207 -69,238 18,22 72,18 132,-8 z M 600,2366 c 30,-7 95,-31 144,-54 49,-23 91,-42 94,-42 17,0 153,-110 241,-195 l 105,-100 -66,85 c -151,196 -179,310 -69,280 33,-9 57,-30 138,-123 151,-172 150,-171 117,-112 -15,28 -47,75 -71,105 -24,30 -43,60 -43,67 0,19 47,-2 115,-52 97,-71 206,-145 214,-145 4,0 6,24 3,53 -5,61 11,83 53,73 38,-10 81,-52 190,-189 55,-69 101,-124 103,-122 8,8 -34,85 -89,161 -33,46 -59,89 -57,94 7,21 180,-94 255,-169 17,-17 34,-31 37,-31 9,0 7,35 -2,46 -14,15 -34,93 -27,104 3,6 21,10 39,10 37,0 72,-29 107,-89 71,-120 140,-223 145,-218 7,7 -16,51 -79,155 -28,45 -48,85 -45,87 10,10 114,-82 156,-139 40,-52 132,-224 132,-244 0,-5 6,-15 13,-21 8,-6 19,-30 26,-52 7,-23 24,-59 37,-80 13,-21 24,-45 24,-54 0,-8 12,-40 26,-72 14,-32 32,-71 40,-88 7,-16 45,-102 84,-189 65,-146 79,-188 51,-154 -47,59 -70,82 -77,76 -4,-5 -2,-19 4,-33 14,-31 16,-75 3,-75 -19,0 -98,122 -186,285 -91,168 -184,293 -208,278 -5,-3 -7,-1 -3,5 3,6 -7,20 -24,32 -36,26 -42,8 -10,-33 11,-14 20,-28 20,-32 0,-11 86,-150 205,-330 135,-206 128,-195 117,-195 -6,0 -27,25 -47,56 -34,51 -40,55 -66,50 -25,-5 -36,4 -107,79 -94,101 -121,113 -86,39 9,-19 15,-37 13,-39 -9,-8 -27,12 -76,85 -148,220 -405,518 -483,560 -36,19 103,-147 169,-203 19,-15 31,-30 28,-34 -3,-3 7,-16 24,-30 16,-14 29,-30 29,-37 0,-7 15,-30 33,-52 127,-149 234,-324 198,-324 -13,0 -111,109 -124,137 l -11,24 -21,-27 c -20,-26 -22,-26 -51,-11 -31,16 -85,61 -205,172 -36,33 -96,87 -134,120 -37,33 -106,96 -152,140 -47,44 -92,84 -101,89 -25,14 68,-92 140,-160 69,-65 251,-260 300,-321 45,-57 18,-53 -120,16 -66,34 -125,61 -131,61 -19,0 -12,-18 27,-78 46,-67 56,-92 39,-92 -7,0 -97,68 -202,150 -104,83 -197,153 -207,156 -10,3 -18,9 -18,14 0,10 -121,100 -175,130 -22,12 -44,27 -50,34 -5,6 -34,26 -62,44 -56,34 -72,28 -25,-8 72,-56 97,-77 119,-98 13,-12 122,-96 241,-187 119,-90 233,-178 252,-195 19,-17 77,-68 129,-113 51,-45 89,-83 83,-85 -6,-2 -33,8 -61,22 -48,25 -91,34 -91,19 0,-3 23,-33 51,-65 28,-33 49,-62 46,-65 -8,-8 -72,33 -178,113 -85,64 -161,113 -454,292 -350,214 -484,315 -534,404 -16,28 -28,55 -25,60 3,5 33,-12 67,-37 34,-25 87,-62 117,-82 30,-20 68,-50 83,-65 16,-15 33,-28 39,-28 15,0 -92,103 -185,179 -46,38 -75,67 -70,72 11,11 128,-23 182,-52 83,-45 69,-17 -68,127 -134,141 -187,213 -213,287 -18,55 -24,132 -9,141 5,3 53,-40 107,-95 95,-97 256,-235 319,-273 17,-10 -14,24 -68,74 -117,110 -319,338 -311,351 7,12 37,10 104,-5 z M 278,2169 c 64,-29 108,-65 234,-188 105,-102 123,-130 71,-110 -56,21 -117,-16 -115,-70 0,-16 12,-52 27,-81 14,-29 24,-54 21,-57 -22,-23 -132,65 -213,172 -103,135 -153,285 -116,348 8,13 43,7 91,-14 z m 202,-539 c 0,-5 -5,-10 -11,-10 -5,0 -7,5 -4,10 3,6 8,10 11,10 2,0 4,-4 4,-10 z m 70,-64 c 25,-11 65,-34 90,-51 25,-16 54,-35 65,-40 33,-17 29,-40 -11,-54 l -36,-13 4,-58 c 3,-44 13,-72 41,-120 21,-34 36,-64 34,-66 -6,-6 -145,93 -211,150 -134,116 -201,250 -145,289 18,13 27,13 72,0 29,-8 72,-25 97,-37 z m 275,-177 c 105,-29 232,-107 615,-378 88,-62 195,-132 238,-155 112,-61 163,-95 157,-106 -3,-5 -24,2 -48,16 -44,25 -77,31 -77,14 0,-5 24,-33 52,-60 40,-39 49,-53 39,-59 -11,-7 -6,-13 18,-25 17,-9 31,-21 31,-26 0,-18 -40,-10 -100,20 -33,16 -142,66 -242,111 -242,107 -336,155 -379,193 -19,18 -73,51 -120,73 -70,34 -99,56 -165,125 -74,77 -124,152 -110,165 10,10 55,-17 139,-82 78,-62 137,-100 137,-91 0,3 -31,31 -69,63 -93,79 -99,84 -169,133 -74,52 -82,80 -24,80 20,0 55,-5 77,-11 z m 1006,-268 c 24,-16 56,-40 70,-54 14,-13 36,-30 50,-37 17,-9 11,1 -21,34 -32,33 -41,49 -33,57 14,14 44,-1 95,-47 50,-44 87,-68 95,-60 4,4 -15,27 -42,51 -27,24 -47,47 -43,50 11,12 142,-63 204,-116 124,-107 195,-137 83,-35 -34,31 -60,59 -56,62 13,13 188,-91 370,-220 72,-51 106,-55 48,-5 -46,38 -33,48 24,18 65,-34 137,-100 175,-159 28,-43 30,-52 19,-67 -17,-21 -125,-90 -204,-132 -33,-17 -82,-44 -110,-59 -27,-15 -85,-46 -128,-69 l -77,-42 -49,43 c -27,24 -90,71 -140,106 -119,82 -270,244 -247,267 2,3 34,-16 71,-42 76,-55 95,-55 33,0 -86,75 -109,98 -135,131 -34,46 -23,54 27,19 67,-46 55,-22 -29,60 -78,75 -103,117 -82,138 7,7 23,1 50,-21 58,-47 59,-39 4,26 -66,76 -93,113 -93,123 0,17 26,9 71,-20 z m -929,-95 c 91,-45 147,-81 138,-88 -3,-2 -18,-12 -34,-22 -25,-16 -28,-22 -23,-53 4,-21 23,-56 47,-84 37,-44 49,-69 34,-69 -7,0 -225,131 -234,140 -3,3 -35,31 -71,62 -86,74 -124,149 -81,162 50,15 133,-3 224,-48 z m 273,-145 c 76,-37 205,-99 410,-194 411,-191 725,-366 725,-403 0,-17 -48,-54 -70,-54 -28,0 -511,162 -640,215 -340,138 -515,251 -544,352 -12,38 11,35 89,-13 82,-49 164,-88 171,-81 2,2 -51,39 -118,81 -68,42 -132,84 -143,92 -20,15 -20,15 -1,30 28,20 32,19 121,-25 z"
       inkscape:connector-curvature="0"
       style="fill:#ff0000" />
  </g>
  <g
     transform="matrix(0.1,0,0,-0.1,-4.4101383,280.67846)"
     id="g7"
     style="fill:#a0a0a0;stroke:none">
    <path
       class="node"
       id="node3"
       d="m 173,2764 c -17,-7 -44,-30 -59,-49 -50,-67 -31,-183 50,-305 66,-100 278,-332 291,-319 2,3 -5,31 -16,64 -30,87 -36,168 -15,199 20,32 70,46 127,35 76,-13 143,-30 164,-40 41,-19 177,-61 182,-56 22,23 -138,171 -322,298 -137,95 -315,189 -355,188 -8,0 -29,-7 -47,-15 z"
       inkscape:connector-curvature="0" />
    <path
       class="node"
       id="node4"
       d="m 768,2710 c -34,-26 -40,-64 -22,-140 12,-54 23,-73 67,-119 42,-45 83,-94 114,-140 1,-2 15,8 29,22 68,68 284,5 441,-130 60,-51 67,-43 21,25 -102,151 -294,358 -401,430 -105,73 -198,92 -249,52 z"
       inkscape:connector-curvature="0" />
    <path
       class="node"
       id="node5"
       d="m 1320,2570 c -38,-38 -19,-104 71,-255 70,-116 100,-156 106,-138 3,7 13,23 23,35 15,19 28,23 77,22 77,0 155,-38 312,-151 l 24,-18 -7,29 c -13,54 -131,220 -202,285 -124,114 -289,211 -359,211 -14,0 -34,-9 -45,-20 z"
       inkscape:connector-curvature="0" />
    <path
       class="node"
       id="node6"
       d="m 1850,2405 c -25,-31 4,-130 69,-238 23,-37 25,-38 67,-31 32,4 54,1 86,-13 24,-11 60,-27 80,-36 20,-9 55,-33 78,-53 22,-20 43,-34 46,-31 8,7 -55,136 -101,207 -53,83 -133,160 -193,187 -60,26 -114,30 -132,8 z"
       inkscape:connector-curvature="0" />
    <path
       class="node"
       id="node7"
       d="m 496,2371 c -8,-13 194,-241 311,-351 54,-50 85,-84 68,-74 -63,38 -224,176 -319,273 -54,55 -102,98 -107,95 -15,-9 -9,-86 9,-141 26,-74 79,-146 213,-287 137,-144 151,-172 68,-127 -54,29 -171,63 -182,52 -5,-5 24,-34 70,-72 93,-76 200,-179 185,-179 -6,0 -23,13 -39,28 -15,15 -53,45 -83,65 -30,20 -83,57 -117,82 -34,25 -64,42 -67,37 -3,-5 9,-32 25,-60 50,-89 184,-190 534,-404 293,-179 369,-228 454,-292 106,-80 170,-121 178,-113 3,3 -18,32 -46,65 -28,32 -51,62 -51,65 0,15 43,6 91,-19 28,-14 55,-24 61,-22 6,2 -32,40 -83,85 -52,45 -110,96 -129,113 -19,17 -133,105 -252,195 -119,91 -228,175 -241,187 -22,21 -47,42 -119,98 -47,36 -31,42 25,8 28,-18 57,-38 62,-44 6,-7 28,-22 50,-34 54,-30 175,-120 175,-130 0,-5 8,-11 18,-14 10,-3 103,-73 207,-156 105,-82 195,-150 202,-150 17,0 7,25 -39,92 -39,60 -46,78 -27,78 6,0 65,-27 131,-61 138,-69 165,-73 120,-16 -49,61 -231,256 -300,321 -72,68 -165,174 -140,160 9,-5 54,-45 101,-89 46,-44 115,-107 152,-140 38,-33 98,-87 134,-120 120,-111 174,-156 205,-172 29,-15 31,-15 51,11 l 21,27 11,-24 c 6,-12 34,-49 63,-80 154,-169 34,66 -137,267 -18,22 -33,45 -33,52 0,7 -13,23 -29,37 -17,14 -27,27 -24,30 3,4 -9,19 -28,34 -66,56 -205,222 -169,203 78,-42 335,-340 483,-560 49,-73 67,-93 76,-85 2,2 -4,20 -13,39 -35,74 -8,62 86,-39 71,-75 82,-84 107,-79 26,5 32,1 66,-50 20,-31 41,-56 47,-56 11,0 18,-11 -117,195 -119,180 -205,319 -205,330 0,4 -9,18 -20,32 -32,41 -26,59 10,33 17,-12 27,-26 24,-32 -4,-6 -2,-8 3,-5 24,15 117,-110 208,-278 88,-163 167,-285 186,-285 13,0 11,44 -3,75 -6,14 -8,28 -4,33 7,6 30,-17 77,-76 28,-34 14,8 -51,154 -39,87 -77,173 -84,189 -8,17 -26,56 -40,88 -14,32 -26,64 -26,72 0,9 -11,33 -24,54 -13,21 -30,57 -37,80 -7,22 -18,46 -26,52 -7,6 -13,16 -13,21 0,20 -92,192 -132,244 -42,57 -146,149 -156,139 -3,-2 17,-42 45,-87 63,-104 86,-148 79,-155 -5,-5 -74,98 -145,218 -35,60 -70,89 -107,89 -18,0 -36,-4 -39,-10 -7,-11 13,-89 27,-104 9,-11 11,-46 2,-46 -3,0 -20,14 -37,31 -75,75 -248,190 -255,169 -2,-5 24,-48 57,-94 55,-76 97,-153 89,-161 -2,-2 -48,53 -103,122 -109,137 -152,179 -190,189 -42,10 -58,-12 -53,-73 3,-29 1,-53 -3,-53 -8,0 -117,74 -214,145 -68,50 -115,71 -115,52 0,-7 19,-37 43,-67 24,-30 56,-77 71,-105 33,-59 34,-60 -117,112 -81,93 -105,114 -138,123 -110,30 -82,-84 69,-280 l 66,-85 -105,100 c -88,85 -224,195 -241,195 -3,0 -45,19 -94,42 -114,54 -234,82 -248,59 z"
       inkscape:connector-curvature="0" />
    <path
       class="node"
       id="node8"
       d="m 187,2183 c -37,-63 13,-213 116,-348 81,-107 191,-195 213,-172 3,3 -7,28 -21,57 -15,29 -27,65 -27,81 -2,54 59,91 115,70 14,-6 29,-7 31,-2 6,9 -186,199 -249,248 -69,53 -165,88 -178,66 z"
       inkscape:connector-curvature="0" />
    <path
       class="node"
       id="node9"
       d="m 465,1630 c -3,-5 -1,-10 4,-10 6,0 11,5 11,10 0,6 -2,10 -4,10 -3,0 -8,-4 -11,-10 z"
       inkscape:connector-curvature="0" />
    <path
       class="node"
       id="node10"
       d="m 381,1603 c -56,-39 11,-173 145,-289 66,-57 205,-156 211,-150 2,2 -13,32 -34,66 -28,48 -38,76 -41,120 l -4,58 36,13 c 40,14 44,37 11,54 -11,5 -40,24 -65,40 -59,39 -123,69 -187,88 -45,13 -54,13 -72,0 z"
       inkscape:connector-curvature="0" />
    <path
       class="node"
       id="node11"
       d="m 710,1382 c 0,-11 25,-36 62,-62 70,-49 76,-54 169,-133 38,-32 69,-60 69,-63 0,-9 -59,29 -137,91 -84,65 -129,92 -139,82 -14,-13 36,-88 110,-165 66,-69 95,-91 165,-125 47,-22 101,-55 120,-73 43,-38 137,-86 379,-193 100,-45 209,-95 242,-111 60,-30 100,-38 100,-20 0,5 -14,17 -31,26 -24,12 -29,18 -18,25 10,6 1,20 -39,59 -28,27 -52,55 -52,60 0,17 33,11 77,-14 24,-14 45,-21 48,-16 6,11 -45,45 -157,106 -43,23 -150,93 -238,155 -456,323 -573,389 -692,389 -30,0 -38,-4 -38,-18 z"
       inkscape:connector-curvature="0" />
    <path
       class="node"
       id="node12"
       d="m 1760,1141 c 0,-10 27,-47 93,-123 55,-65 54,-73 -4,-26 -27,22 -43,28 -50,21 -21,-21 4,-63 82,-138 84,-82 96,-106 29,-60 -50,35 -61,27 -27,-19 26,-33 49,-56 135,-131 62,-55 43,-55 -33,0 -37,26 -69,45 -71,42 -23,-23 128,-185 247,-267 50,-35 113,-82 140,-106 l 49,-43 77,42 c 43,23 101,54 128,69 28,15 77,42 110,59 79,42 187,111 204,132 28,35 -88,170 -194,226 -57,30 -70,20 -24,-18 58,-50 24,-46 -48,5 -182,129 -357,233 -370,220 -4,-3 22,-31 56,-62 112,-102 41,-72 -83,35 -62,53 -193,128 -204,116 -4,-3 16,-26 43,-50 27,-24 46,-47 42,-51 -8,-8 -45,16 -95,60 -51,46 -81,61 -95,47 -8,-8 1,-24 33,-57 32,-33 38,-43 21,-34 -14,7 -36,24 -50,37 -56,54 -141,99 -141,74 z"
       inkscape:connector-curvature="0" />
    <path
       class="node"
       id="node13"
       d="m 678,1074 c -43,-13 -5,-88 81,-162 36,-31 68,-59 71,-62 9,-9 227,-140 234,-140 15,0 3,25 -34,69 -24,28 -43,63 -47,84 -5,31 -2,37 23,53 16,10 31,20 34,22 9,7 -47,43 -138,88 -91,45 -174,63 -224,48 z"
       inkscape:connector-curvature="0" />
    <path
       class="node"
       id="node14"
       d="m 1054,906 c -19,-15 -19,-15 1,-30 11,-8 75,-50 143,-92 67,-42 120,-79 118,-81 -7,-7 -89,32 -171,81 -78,48 -101,51 -89,13 29,-101 204,-214 544,-352 129,-53 612,-215 640,-215 22,0 70,37 70,54 0,37 -314,212 -725,403 -205,95 -334,157 -410,194 -89,44 -93,45 -121,25 z"
       inkscape:connector-curvature="0" />
  </g>
  <path
     style="fill:#000000;fill-opacity:1"
     d="M 186.63924,224.89817 C 177.52613,218.39378 153.9815,203.05903 134.31784,190.82095 91.994918,164.48044 80.519004,156.56353 70.2355,146.61235 63.111434,139.7185 56.620988,130.29722 58.995795,130.29722 c 1.297643,0 19.855914,13.01828 28.931374,20.29482 12.565821,10.07504 8.574526,4.09794 -7.167328,-10.73331 l -15.562768,-14.66254 6.301025,1.09776 c 3.465564,0.60376 8.113339,2.01843 10.32839,3.1437 6.482777,3.29333 11.177788,4.40154 11.177788,2.63841 0,-0.88731 -7.542842,-9.96616 -16.761872,-20.17523 C 57.816578,91.496238 51.97688,81.81539 50.601817,69.394755 l -0.909831,-8.218297 6.958052,6.336323 c 3.826928,3.484976 11.605827,10.705452 17.286442,16.045498 13.375455,12.573563 28.79224,24.832291 29.87182,23.752711 0.4661,-0.4661 -6.727265,-8.5344 -15.985262,-17.929553 -9.257997,-9.395154 -20.146905,-21.01483 -24.197573,-25.821504 -6.612324,-7.846431 -7.029523,-8.79136 -4.083055,-9.247863 10.568493,-1.637401 40.078423,12.102982 56.2593,26.195398 29.92219,26.060132 28.96683,25.430012 18.874,12.448651 -8.55547,-11.004011 -16.2477,-25.065012 -16.2477,-29.699954 0,-3.871932 0.61425,-4.463181 4.63681,-4.463181 3.84228,0 7.38124,2.926969 20.6531,17.081567 8.80896,9.394863 16.01794,16.299905 16.01996,15.344538 0.002,-0.955366 -3.59015,-6.854466 -7.98262,-13.10911 -4.48846,-6.391335 -7.07268,-11.37208 -5.90032,-11.37208 1.14729,0 9.87522,5.362818 19.3954,11.917373 9.52019,6.554555 17.89567,11.917373 18.61219,11.917373 0.71652,0 1.30276,-2.717161 1.30276,-6.038136 0,-10.073649 4.37508,-11.626972 12.53585,-4.450722 2.08804,1.836139 9.14444,9.773815 15.68089,17.639281 15.25992,18.362642 14.68581,17.782652 14.68581,14.836252 0,-1.36601 -3.89004,-8.4638 -8.64452,-15.772852 -4.75449,-7.309057 -8.34047,-13.593234 -7.96887,-13.96484 0.99155,-0.991563 17.70311,10.331358 27.33902,18.523572 8.93404,7.5955 9.61465,7.04104 5.99617,-4.884722 -2.05505,-6.77298 -2.04189,-7.722017 0.11854,-8.551047 5.09522,-1.955216 10.37306,3.021866 21.55749,20.329019 12.73478,19.70618 16.87218,21.06314 5.52777,1.81297 -3.96508,-6.7283 -6.82554,-12.612184 -6.35658,-13.075302 0.46897,-0.463117 5.29044,3.837312 10.71439,9.556512 8.15475,8.59867 12.11804,14.9697 22.89721,36.80763 7.16951,14.52499 13.03548,27.04744 13.03548,27.82766 0,0.78022 5.36282,13.42187 11.91737,28.09255 6.55456,14.67068 11.91737,27.44655 11.91737,28.39082 0,0.94427 -1.65492,0.16212 -3.67762,-1.73811 -5.10647,-4.79727 -5.66277,-4.41399 -4.7871,3.29824 l 0.76678,6.75317 -3.22358,-3.97245 c -3.09955,-3.8196 -9.01905,-13.59855 -25.22784,-41.67608 -7.2821,-12.61434 -23.57582,-31.41714 -27.22481,-31.41714 -0.97576,0 -1.77413,0.38151 -1.77413,0.8478 0,1.41726 18.97441,32.43101 28.85154,47.15798 5.10623,7.61345 9.28405,14.12844 9.28405,14.47775 0,0.3493 -1.96637,0.28093 -4.3697,-0.15191 -2.4924,-0.44889 -8.91127,-5.13283 -14.94084,-10.90253 -5.81413,-5.56355 -11.08756,-10.11553 -11.71875,-10.11553 -0.6312,0 -0.6873,2.30154 -0.12474,5.11453 1.22285,6.11427 1.46349,6.37197 -13.67839,-14.64843 -20.42475,-28.35423 -49.24745,-60.38136 -54.34,-60.38136 -1.79725,0 4.66389,8.45599 15.45529,20.22706 17.47834,19.06506 47.44502,61.0662 45.18299,63.32825 -1.03487,1.03489 -15.49128,-15.07845 -15.49128,-17.26686 0,-0.93176 -1.66599,-0.12899 -3.70219,1.78392 l -3.70219,3.47803 -6.22895,-4.52024 c -3.42593,-2.48613 -19.09972,-16.19359 -34.83066,-30.46102 -15.73093,-14.26743 -30.21054,-27.38424 -32.1769,-29.14847 -1.96637,-1.76422 -3.57521,-2.45349 -3.57521,-1.5317 0,0.9218 12.20236,14.40888 27.11636,29.97131 26.1981,27.33713 33.13355,35.59491 28.28564,33.67869 -1.19409,-0.47198 -8.7971,-3.90539 -16.89557,-7.62978 -8.09848,-3.72439 -15.14689,-6.34924 -15.66314,-5.83299 -0.51626,0.51625 1.28323,4.82208 3.99886,9.5685 2.71563,4.74642 4.93751,9.1022 4.93751,9.6795 0,1.07348 -50.01782,-36.28229 -57.20339,-42.72231 -5.23359,-4.69057 -35.00385,-24.65697 -36.76399,-24.65697 -4.56697,0 -2.63166,1.65505 47.00328,40.19652 26.80215,20.81183 56.72112,45.82612 55.88722,46.7255 -0.16443,0.17735 -3.62981,-0.8753 -7.70083,-2.33923 -4.07102,-1.46393 -7.91852,-2.14505 -8.54998,-1.51359 -0.63147,0.63148 1.18824,4.05542 4.04379,7.60877 2.85555,3.55335 4.8896,6.76293 4.52011,7.13242 -0.36949,0.36948 -8.12797,-4.64997 -17.24108,-11.15436 z"
     id="path4191"
     inkscape:connector-curvature="0"
     transform="matrix(0.8,0,0,0.8,0,-1.2207031e-5)" />
  <path
     style="fill:#000000;fill-opacity:1"
     d="m 270.17589,299.40309 c -9.61335,-7.45399 -19.51156,-15.48146 -21.99601,-17.83882 -6.62616,-6.28719 -14.27284,-16.21642 -13.26484,-17.22442 0.48091,-0.48091 4.19257,1.40859 8.24813,4.1989 4.05557,2.7903 7.66012,4.78692 8.01011,4.43693 0.34999,-0.34999 -4.70556,-5.9426 -11.23455,-12.42802 -6.52899,-6.48542 -11.87089,-12.32173 -11.87089,-12.96958 0,-0.64786 2.50264,0.29868 5.56144,2.10341 7.86882,4.64272 6.89804,1.77055 -2.50814,-7.4207 -8.631,-8.43376 -13.45433,-15.90112 -11.17916,-17.30725 0.76802,-0.47466 3.3057,0.63884 5.6393,2.47445 7.04469,5.54136 6.17321,2.42761 -2.28039,-8.14772 -4.40015,-5.50451 -7.69675,-10.31173 -7.32577,-10.68271 1.21806,-1.21806 11.19402,4.58369 16.43862,9.56025 6.48047,6.1493 8.925,4.33291 2.78864,-2.07208 -6.95794,-7.26253 -0.89819,-6.17481 8.94472,1.60556 11.05925,8.74184 15.15354,8.55118 6.66371,-0.3103 -8.94469,-9.33624 4.57223,-2.08656 24.29627,13.03109 12.8782,9.87061 16.27762,10.25285 6.98618,0.78556 -3.85969,-3.93273 -6.39527,-7.15042 -5.63464,-7.15042 2.12979,0 14.18836,7.23477 33.87634,20.32476 16.9174,11.24791 23.51665,13.8398 17.05313,6.69769 -3.49274,-3.85944 -1.37984,-4.15965 4.00733,-0.56938 9.43877,6.29045 22.20208,20.68154 22.20208,25.03363 0,2.28685 -61.06751,37.58229 -64.81105,37.45911 -0.62246,-0.0205 -8.99722,-6.13595 -18.61056,-13.58994 z"
     id="path4193"
     inkscape:connector-curvature="0"
     transform="matrix(0.8,0,0,0.8,0,-1.2207031e-5)" />
  <path
     style="fill:#000000;fill-opacity:1"
     d="m 236.01275,309.30813 c -53.19244,-18.11664 -83.02741,-31.72274 -98.16137,-44.76606 -6.20448,-5.34738 -12.57634,-14.5029 -11.11231,-15.96693 0.33026,-0.33026 4.49448,1.55422 9.25381,4.18773 12.30669,6.80974 22.30896,11.38932 23.11499,10.5833 0.38015,-0.38015 -7.26714,-5.95324 -16.99397,-12.38466 -15.42256,-10.19745 -17.27129,-11.87815 -14.45025,-13.13693 2.56041,-1.14249 11.12853,2.28264 41.0939,16.42741 72.97474,34.44679 113.33571,56.2368 113.33571,61.18747 0,2.59331 -4.82644,5.54295 -9.03219,5.51995 -1.58685,-0.009 -18.25859,-5.25176 -37.04832,-11.65128 z"
     id="path4195"
     inkscape:connector-curvature="0"
     transform="matrix(0.8,0,0,0.8,0,-1.2207031e-5)" />
  <path
     style="fill:#000000;fill-opacity:1"
     d="m 182.20115,257.40968 c -20.42,-9.49822 -41.15623,-20.08155 -46.08051,-23.5185 -4.92427,-3.43695 -12.11845,-7.85188 -15.98706,-9.81094 -13.47485,-6.82366 -39.434523,-34.99065 -32.248598,-34.99065 0.680151,0 7.988109,4.96694 16.239908,11.03764 14.32986,10.54223 18.93802,12.8314 14.1323,7.02045 -1.21696,-1.47152 -9.54184,-8.33616 -18.499736,-15.25476 -8.957892,-6.9186 -16.287076,-13.23985 -16.287076,-14.04723 0,-2.63349 10.633535,-1.54643 20.118142,2.05666 5.10292,1.93855 23.57889,13.15781 41.05771,24.93171 45.89502,30.91532 59.97938,40.09885 69.21184,45.12872 8.64642,4.7106 10.10389,7.93096 1.5989,3.53286 -7.63172,-3.94652 -8.68005,-1.36095 -2.50408,6.176 3.06958,3.74602 5.58105,7.54388 5.58105,8.4397 0,0.89582 1.60884,2.75104 3.57521,4.12271 3.3818,2.35902 3.40329,2.49262 0.39724,2.46953 -1.74788,-0.0134 -19.88524,-7.79568 -40.30524,-17.2939 z"
     id="path4197"
     inkscape:connector-curvature="0"
     transform="matrix(0.8,0,0,0.8,0,-1.2207031e-5)" />
  <path
     style="fill:#000000;fill-opacity:1"
     d="m 111.6425,252.19697 c -21.473856,-12.91418 -38.373248,-30.96039 -32.603406,-34.8159 4.73521,-3.16416 24.574796,2.76849 38.932446,11.64201 l 5.41983,3.34964 -3.27617,3.48733 c -4.44648,4.73306 -4.13359,7.81965 1.64393,16.21699 2.70607,3.93313 4.63746,7.4338 4.29199,7.77927 -0.34547,0.34547 -6.82935,-3.10123 -14.40862,-7.65934 z"
     id="path4199"
     inkscape:connector-curvature="0"
     transform="matrix(0.8,0,0,0.8,0,-1.2207031e-5)" />
  <path
     style="fill:#000000;fill-opacity:1"
     d="M 73.141988,196.12137 C 53.542896,181.35222 40.567836,165.84629 40.567836,157.1934 c 0,-6.35234 2.974504,-8.06625 10.433922,-6.01203 10.617422,2.9239 34.057603,15.92919 34.057603,18.89614 0,0.67231 -2.026989,1.929 -4.504422,2.79263 -4.333487,1.51067 -4.46512,1.86328 -3.468761,9.2921 0.569612,4.24701 2.611134,10.76078 4.536715,14.47502 1.925582,3.71425 2.950242,6.73413 2.277025,6.71084 -0.673217,-0.0233 -5.514286,-3.27531 -10.75793,-7.22673 z"
     id="path4201"
     inkscape:connector-curvature="0"
     transform="matrix(0.8,0,0,0.8,0,-1.2207031e-5)" />
  <path
     style="fill:#000000;fill-opacity:1"
     d="M 42.178313,130.69447 C 28.273578,116.77904 18.749876,100.21595 17.218479,87.285708 c -1.145909,-9.675416 1.182286,-11.0378 11.889143,-6.957139 5.391473,2.054829 12.158724,7.436498 24.172078,19.222887 l 16.684322,16.369104 -5.712413,0.0379 c -10.158717,0.0674 -13.539717,7.805 -8.588434,19.65509 2.855014,6.83302 2.900795,7.39552 0.601887,7.39552 -0.979873,0 -7.31891,-5.54158 -14.086749,-12.31462 z"
     id="path4203"
     inkscape:connector-curvature="0"
     transform="matrix(0.8,0,0,0.8,0,-1.2207031e-5)" />
  <path
     style="fill:#000000;fill-opacity:1"
     d="M 36.925993,74.825605 C 11.019684,47.709776 1.2038866,27.431476 7.8053299,14.665693 14.012336,2.662667 21.792269,2.0603549 40.437231,12.139375 69.865543,28.047617 109.2665,58.950253 105.24661,62.97014 104.7891,63.427648 98.093444,61.661873 90.367367,59.046198 72.59456,53.029184 59.581405,50.402322 54.216766,51.748761 c -8.767161,2.200418 -10.88969,10.829609 -6.390405,25.980347 1.370366,4.614524 2.192156,8.689466 1.826198,9.055423 -0.365958,0.365959 -6.092913,-5.015558 -12.726566,-11.958926 z"
     id="path4205"
     inkscape:connector-curvature="0"
     transform="matrix(0.8,0,0,0.8,0,-1.2207031e-5)" />
  <path
     style="fill:#000000;fill-opacity:1"
     d="m 166.81804,73.012126 c -1.62247,-1.79282 -8.89108,-6.203617 -16.15246,-9.801773 -15.54975,-7.705204 -27.19088,-9.464996 -35.20319,-5.321674 -5.05713,2.615145 -5.08914,2.606485 -9.39656,-2.542025 C 103.68865,52.505295 99.118312,47.134307 95.909524,43.411124 88.906795,35.285797 85.073942,21.80128 88.139157,16.073873 95.472759,2.3709132 120.07717,13.22177 145.83655,41.519149 c 12.50005,13.731653 26.49812,31.40977 26.57454,33.560911 0.0786,2.211715 -2.62446,1.212311 -5.59305,-2.067934 z"
     id="path4207"
     inkscape:connector-curvature="0"
     transform="matrix(0.8,0,0,0.8,0,-1.2207031e-5)" />
  <path
     style="fill:#000000;fill-opacity:1"
     d="M 225.68436,84.67426 C 206.55627,71.377232 190.41994,67.7031 183.54736,75.079952 l -3.33072,3.575102 -2.68987,-3.580322 c -1.47943,-1.969177 -6.20865,-9.727324 -10.50938,-17.240323 -12.67894,-22.149 -10.47791,-33.549212 5.43604,-28.155889 9.99132,3.386112 31.31515,17.850136 39.99279,27.12724 8.49851,9.085589 22.56334,29.710567 21.74635,31.889304 -0.30981,0.826189 -4.13851,-0.983174 -8.50821,-4.020804 z"
     id="path4209"
     inkscape:connector-curvature="0"
     transform="matrix(0.8,0,0,0.8,0,-1.2207031e-5)" />
  <path
     style="fill:#000000;fill-opacity:1"
     d="m 270.97038,94.238804 c -9.05785,-6.424755 -19.3821,-10.500387 -27.01271,-10.663621 l -7.15043,-0.152962 -5.37897,-10.711808 c -2.9707,-5.915934 -5.46066,-13.385813 -5.56144,-16.684322 l -0.18247,-5.972514 7.41871,0.09178 c 9.21962,0.114053 18.14752,5.880523 27.47216,17.744065 6.41798,8.165463 17.79771,28.555299 16.57921,29.706101 -0.34244,0.323416 -3.12527,-1.187106 -6.18406,-3.356714 z"
     id="path4211"
     inkscape:connector-curvature="0"
     transform="matrix(0.8,0,0,0.8,0,-1.2207031e-5)" />
  <path
     style="fill:#ff6600;fill-opacity:1"
     d="m 273.35385,324.91772 c -0.87394,-0.29795 -12.67214,-4.11062 -26.21822,-8.47258 -30.74302,-9.89956 -52.81325,-17.86856 -51.93087,-18.75094 0.3706,-0.3706 18.00508,5.18411 39.18774,12.34379 41.16615,13.91403 44.99278,14.43163 48.47007,6.55607 1.00399,-2.27393 2.49977,-3.2447 4.17853,-2.71189 1.50097,0.4764 13.31719,-4.99989 27.73983,-12.85616 27.11655,-14.77083 38.12735,-21.76101 39.25424,-24.92043 1.25566,-3.52042 -3.16152,-9.98206 -13.13741,-19.21797 -10.18531,-9.42981 -16.88354,-12.55947 -19.12345,-8.93522 -1.00336,1.62348 -2.49476,1.17167 -6.68661,-2.0256 -10.42934,-7.95485 -36.85093,-23.46855 -39.9696,-23.46855 -2.83093,0 -2.6864,0.48735 1.41372,4.76695 2.51186,2.62182 3.80576,4.76695 2.87533,4.76695 -0.93045,0 -2.59461,-1.08793 -3.69815,-2.41761 -3.69329,-4.45014 -25.62048,-18.23917 -29.00378,-18.23917 -3.12465,0 -3.04495,0.31018 1.2249,4.76695 6.18229,6.4529 3.65608,6.0225 -4.66318,-0.7945 -7.20441,-5.90347 -12.02114,-7.15001 -12.02114,-3.11099 0,1.96376 -1.36903,1.64816 -6.89278,-1.58898 -12.04971,-7.06158 -13.53553,-5.18131 -4.87183,6.16519 4.52255,5.92302 5.10245,7.37898 2.78072,6.98168 -2.02307,-0.3462 -3.09028,0.60166 -3.43875,3.05415 -0.3569,2.51196 1.95905,6.16174 7.88746,12.43017 7.57348,8.00784 7.97179,8.7684 4.08046,7.79173 -6.3985,-1.60592 -5.38252,1.21856 3.70836,10.30944 8.04866,8.04866 8.89183,9.67846 3.153,6.09449 -1.69627,-1.05932 -3.52691,-1.4833 -4.06807,-0.94215 -3.33076,3.33078 14.54376,22.31501 35.46548,37.66735 6.37222,4.67592 11.27686,8.81067 10.89919,9.18833 -0.37766,0.37765 -4.87624,-1.99446 -9.99685,-5.27138 -5.12061,-3.27692 -18.60575,-10.81188 -29.96698,-16.74436 -11.97202,-6.25143 -19.15365,-10.79946 -17.08157,-10.81758 4.42942,-0.0388 4.62089,-2.52923 0.39725,-5.16694 -1.74788,-1.09157 -3.17797,-3.03385 -3.17797,-4.31617 0,-1.28233 -2.64777,-5.04307 -5.88392,-8.3572 -6.10799,-6.25514 -5.71211,-7.54606 1.11697,-3.6422 2.18485,1.24897 5.31134,2.29621 6.94773,2.32716 4.96666,0.0941 0.43923,-3.84181 -13.85273,-12.04252 -7.12651,-4.08918 -21.89532,-13.64118 -32.81958,-21.22664 -54.08846,-37.55734 -69.96525,-46.7823 -83.615248,-48.58325 -11.200362,-1.47777 -12.672374,1.31311 -4.448708,8.43458 5.88276,5.09429 5.986899,5.33512 1.86163,4.30527 -5.943943,-1.48391 -5.739775,1.65243 0.684927,10.52147 8.215813,11.3416 19.048749,20.89193 31.262129,27.56072 12.04001,6.57413 18.45376,11.8892 11.79754,9.77659 -1.9265,-0.61145 -5.00599,-0.30721 -6.84331,0.6761 -4.18689,2.24075 -2.5592,4.50644 7.45257,10.37372 7.86,4.60628 8.4759,7.21629 0.76149,3.22702 -4.82458,-2.49489 -9.76047,-3.30486 -9.76047,-1.60169 0,0.49443 0.77297,2.34327 1.71772,4.10855 3.17332,5.9294 0.37937,4.65604 -3.86867,-1.76317 -5.14363,-7.77255 -5.3113,-11.80705 -0.62977,-15.15422 l 3.57521,-2.55618 -3.9573,-3.26222 c -9.85445,-8.12351 -33.254147,-16.53106 -40.763434,-14.64635 -2.854486,0.71642 -3.74325,2.03288 -3.74325,5.54455 0,3.53342 2.250899,6.82128 9.672542,14.12858 5.319896,5.23796 8.92086,9.52354 8.00214,9.52354 -3.406401,0 -24.030614,-21.448 -24.030614,-24.99046 0,-4.15142 4.280941,-6.7892 11.01842,-6.7892 5.603563,0 5.955967,-0.89479 2.09069,-5.30851 -2.648306,-3.02407 -2.648306,-3.12699 0,-2.16122 3.721884,1.35728 3.505797,-0.73224 -0.999471,-9.66466 -2.079103,-4.12217 -4.271962,-10.44429 -4.873015,-14.04915 -1.007814,-6.04441 -0.789183,-6.63051 2.810431,-7.53396 9.848107,-2.47171 3.22453,-9.91787 -17.570161,-19.75221 -7.172564,-3.39208 -9.08951,-5.04131 -8.717085,-7.49968 0.448086,-2.9578 0.340743,-2.98057 -1.747517,-0.37065 -1.26337,1.57896 -4.367973,2.78072 -7.183676,2.78072 -3.935436,0 -5.160128,0.80236 -5.934592,3.88807 -2.549105,10.15644 9.56799,26.65104 31.427446,42.78112 3.399686,2.50863 5.840949,4.90144 5.42503,5.31736 -1.243898,1.2439 -14.762042,-8.70788 -25.599638,-18.84591 -18.918576,-17.69741 -22.64298,-36.31861 -7.264036,-36.31861 1.805335,0 3.282428,-0.76574 3.282428,-1.70165 0,-0.93591 -4.826536,-7.01894 -10.725636,-13.51784 C 19.729683,112.82465 10.411967,95.932652 10.386019,84.173025 c -0.01368,-6.202192 4.218847,-11.079194 9.615139,-11.079194 2.572266,0 4.676847,-0.754276 4.676847,-1.676169 0,-0.921894 -2.899065,-5.945232 -6.442366,-11.162976 C 10.539087,48.921012 2.8152084,33.023141 1.4320681,25.66831 0.07101622,18.430934 3.2222723,8.8046399 8.246215,4.8528058 14.614694,-0.15664077 29.349908,0.36996531 40.168805,5.9936534 49.770223,10.984492 74.502966,28.565479 73.430849,29.637596 73.035097,30.033349 66.633703,26.395569 59.205528,21.55364 42.765278,10.837344 26.939786,3.181517 21.224708,3.1798304 15.400446,3.1781116 7.6211531,10.136272 5.7103649,17.056577 2.8602297,27.378916 8.2757432,42.970648 19.654864,57.204001 30.04405,70.199109 44.461216,85.908956 48.315405,88.434317 l 3.794228,2.486073 -1.012895,-6.132559 -1.012894,-6.132559 3.382329,6.355932 c 4.089299,7.684436 10.202656,15.333136 26.060452,32.605416 6.607516,7.1969 11.76951,13.32942 11.471099,13.62783 -0.298412,0.29841 -4.795552,-1.20575 -9.993643,-3.34258 C 75.80599,125.76504 69.43776,123.99975 66.852463,123.979 l -4.700543,-0.0377 7.01761,7.15042 c 8.15886,8.31327 7.374793,9.09734 -2.383474,2.38348 -6.688591,-4.60187 -10.32839,-5.911 -10.32839,-3.71482 0,0.57867 1.841835,4.19499 4.092966,8.03625 5.883115,10.03878 23.393811,23.17727 67.664538,50.76952 21.27225,13.25818 46.86653,29.88292 56.87619,36.94385 23.07176,16.27513 26.45023,16.90615 15.56359,2.90693 -5.2676,-6.77367 -3.49457,-7.76455 5.88776,-3.29043 3.07746,1.46755 6.14066,2.10903 6.80707,1.42552 2.05461,-2.10724 -22.61586,-23.02725 -70.10429,-59.44687 -12.91745,-9.90661 -23.1289,-18.36938 -22.69211,-18.80617 0.94403,-0.94404 18.67432,11.29983 37.8751,26.1551 7.58024,5.86469 20.64329,15.95277 29.02898,22.41798 8.3857,6.46521 15.76416,11.2375 16.39656,10.60508 0.63242,-0.63241 -1.19674,-5.38584 -4.06479,-10.56318 -2.86804,-5.17733 -4.6503,-9.38442 -3.96059,-9.34908 0.68971,0.0353 8.00833,3.2086 16.26361,7.05168 22.42122,10.43779 22.53648,8.30857 0.80024,-14.78173 -7.61035,-8.08445 -13.43099,-15.10499 -12.93477,-15.60121 0.49623,-0.49622 9.57402,6.94303 20.17291,16.53168 22.50904,20.36358 25.83994,22.52821 30.34085,19.71734 2.75207,-1.71869 3.67185,-1.31723 7.44961,3.25156 9.36909,11.33092 14.63827,15.18818 14.63827,10.71583 0,-5.72079 -27.8707,-44.89461 -45.58646,-64.07432 -4.73358,-5.12474 -8.24069,-9.68354 -7.79357,-10.13066 1.63156,-1.63154 26.46611,27.11275 42.73572,49.46364 6.29134,8.64292 13.1028,17.58095 15.13659,19.86229 l 3.69777,4.14786 -0.87733,-5.16419 c -0.48254,-2.84031 -0.41215,-5.1642 0.15636,-5.1642 0.56857,0 5.12882,4.29026 10.13391,9.5339 6.31109,6.61189 10.30038,9.5339 13.01622,9.5339 2.80839,0 5.10579,1.79781 8.12222,6.35593 3.61601,5.46416 7.33903,8.26479 7.33903,5.52078 0,-0.45933 -7.72854,-12.79381 -17.17454,-27.40996 -26.272,-40.65173 -25.96158,-40.08116 -21.80696,-40.08116 3.31724,0 13.11341,13.58458 26.01465,36.07518 19.47205,33.94539 25.4264,40.7754 23.61415,27.0869 l -0.89407,-6.75318 4.77044,5.31589 c 2.62375,2.92373 5.20416,4.88217 5.73426,4.35207 0.53009,-0.53008 -3.18643,-10.43018 -8.25896,-22.0002 -5.07253,-11.57002 -12.03892,-27.82931 -15.48087,-36.13174 -3.44196,-8.30244 -11.01261,-24.74841 -16.82366,-36.54661 -9.14263,-18.56231 -12.14729,-23.05626 -22.31036,-33.36865 -9.57006,-9.710688 -11.93709,-11.405852 -12.78327,-9.154868 -0.8802,2.341489 -1.71255,1.917697 -5.46151,-2.78072 -6.23412,-7.812979 -2.1465,-7.20345 10.70734,1.59663 12.62602,8.644108 13.10165,7.262168 3.74107,-10.869681 -11.17541,-21.647309 -28.03689,-35.994749 -42.30192,-35.994749 -7.22763,0 -7.58596,11.206519 -0.77955,24.379656 3.67082,7.104497 1.43513,6.5697 -3.46025,-0.827725 -18.12243,-27.38486 -60.8848,-53.453446 -67.47733,-41.135206 -2.81493,5.259758 -1.84527,10.611978 3.92991,21.691756 3.06613,5.882433 5.3095,10.960613 4.98527,11.284843 -0.32423,0.324231 -4.7194,-4.458464 -9.76706,-10.628207 -5.04767,-6.169744 -14.51391,-16.201263 -21.03609,-22.292264 -6.52219,-6.091001 -11.35939,-11.074548 -10.74934,-11.074548 0.61004,0 6.18737,3.57778 12.39405,7.950623 l 11.28488,7.950623 5.15986,-5.001135 c 4.91556,-4.764349 5.61543,-4.959826 14.78175,-4.128653 11.31975,1.02644 22.40962,6.696133 38.72518,19.798262 5.95883,4.785203 10.99812,8.451306 11.19839,8.146894 0.20029,-0.304413 1.20866,-2.519845 2.24082,-4.923181 5.27757,-12.288565 33.07911,1.537924 48.22883,23.985553 6.62593,9.817746 24.05803,44.931957 32.37271,65.209697 3.80443,9.27815 11.31622,26.16492 16.69289,37.52615 18.58624,39.27388 41.08365,89.14519 42.17406,93.48974 1.87594,7.47434 -1.93597,10.45487 -40.31759,31.52437 -12.82512,7.04033 -26.89361,15.13975 -31.26332,17.99873 -8.12424,5.3155 -13.06984,7.28306 -15.88983,6.32164 z M 59.635632,143.20314 c 0,-0.76721 -1.072563,-3.96194 -2.383474,-7.09939 -2.913599,-6.97322 -3.076599,-14.37606 -0.366072,-16.6256 1.109571,-0.92086 5.221065,-1.90222 9.136653,-2.18079 l 7.119249,-0.50649 -14.300847,-14.09181 C 42.900261,86.991199 31.204901,78.450136 23.537988,76.917342 19.1111,76.032304 18.177026,76.440608 16.572533,79.962088 11.234408,91.677994 30.826189,127.25959 49.383277,139.5513 c 7.861803,5.20744 10.252355,6.05894 10.252355,3.65184 z"
     id="path4213"
     inkscape:connector-curvature="0"
     transform="matrix(0.8,0,0,0.8,0,-1.2207031e-5)" />
  <path
     style="fill:#ff6600;fill-opacity:1"
     d="m 214.97673,97.342863 c -10.65221,-13.48504 -19.50968,-21.734727 -24.55416,-22.869294 -3.41733,-0.768601 -2.6016,-1.039604 3.48213,-1.15684 9.42154,-0.181559 17.68337,3.253376 32.1514,13.367251 l 10.34073,7.228686 -0.98504,-5.245222 -0.98505,-5.245223 8.34068,0.617603 c 7.79253,0.577015 8.04145,0.720264 3.7877,2.179733 -4.13326,1.418125 -4.47727,2.093589 -3.73178,7.327311 0.45165,3.170851 1.3907,7.195272 2.08676,8.943152 0.89385,2.24454 -1.04368,1.26849 -6.59661,-3.323125 -10.57478,-8.744088 -24.79778,-18.128149 -27.47601,-18.128149 -2.90012,0 -1.6868,2.82327 6.21211,14.454924 3.59482,5.29361 6.22595,9.93483 5.84696,10.31382 -0.37899,0.37899 -3.94291,-3.43009 -7.91982,-8.464627 z"
     id="path4217"
     inkscape:connector-curvature="0"
     transform="matrix(0.8,0,0,0.8,0,-1.2207031e-5)" />
  <path
     style="fill:#ff6600;fill-opacity:1"
     d="M 165.25034,77.066289 C 150.11055,66.642683 142.26275,62.897288 142.26275,66.095361 c 0,0.520545 1.50809,3.064362 3.35131,5.652927 5.72844,8.044848 2.11863,6.721859 -5.13677,-1.882621 -3.79354,-4.498912 -8.69768,-9.225696 -10.8981,-10.503965 -3.85477,-2.239316 -3.7475,-2.290318 2.93977,-1.397685 8.32416,1.111131 23.78421,8.522656 33.44206,16.03208 7.38369,5.741161 9.67037,6.609008 9.67037,3.67012 0,-1.256112 0.68427,-1.215658 2.31387,0.136796 1.27263,1.056187 3.06024,1.459063 3.97246,0.895277 1.03346,-0.638712 1.65859,1.106414 1.65859,4.630154 0,3.110369 -0.22872,5.655218 -0.50827,5.655218 -0.27955,0 -8.29751,-5.362818 -17.8177,-11.917373 z"
     id="path4219"
     inkscape:connector-curvature="0"
     transform="matrix(0.8,0,0,0.8,0,-1.2207031e-5)" />
  <path
     style="fill:#ff6600;fill-opacity:1"
     d="m 124.66367,86.443137 c -7.10814,-7.619846 -23.02544,-19.45527 -29.823013,-22.175121 -9.000017,-3.601093 -7.170568,-4.919483 2.333017,-1.681286 9.234086,3.146368 10.131446,3.166614 10.131446,0.228581 0,-1.430224 0.93052,-1.976531 2.40371,-1.411214 1.32204,0.507314 3.46717,0.0398 4.76695,-1.038924 1.99568,-1.656266 2.36324,-1.271406 2.36324,2.474471 0,4.323618 7.45229,19.381536 12.34908,24.95228 3.91469,4.453467 -0.27769,3.203667 -4.52443,-1.348787 z"
     id="path4221"
     inkscape:connector-curvature="0"
     transform="matrix(0.8,0,0,0.8,0,-1.2207031e-5)" />
  <path
     style="fill:#ff6600;fill-opacity:1"
     d="M 96.880936,50.696403 C 92.563921,46.283564 85.601762,40.136611 81.40947,37.036513 c -7.383213,-5.459709 -9.537648,-9.15389 -2.933039,-5.029244 4.609983,2.878982 5.799231,0.781829 3.64121,-6.421006 C 79.919647,18.250013 81.51942,12.670199 86.901609,8.9003676 90.784977,6.1803508 99.712963,5.7072768 104.92165,7.945526 c 2.35053,1.0100576 1.07007,1.3946972 -4.91792,1.4773009 -10.465331,0.1443687 -14.16356,3.7789441 -13.740314,13.5038121 0.42682,9.806975 2.630028,14.49571 11.767858,25.043641 4.454566,5.141972 7.784116,9.664135 7.398996,10.049255 -0.38512,0.385119 -4.23232,-2.910291 -8.549334,-7.323132 z"
     id="path4223"
     inkscape:connector-curvature="0"
     transform="matrix(0.8,0,0,0.8,0,-1.2207031e-5)" />
  <path
     style="fill:#ff6600;fill-opacity:1"
     d="M 66.381256,74.551167 C 58.123007,66.494089 50.912515,60.675368 49.935093,61.279448 c -1.105443,0.683201 -1.420336,4.339354 -0.863015,10.020253 0.583046,5.943108 0.422978,7.611551 -0.477015,4.972096 -2.592724,-7.603816 -1.888286,-17.261823 1.506671,-20.656779 3.756889,-3.75689 6.355932,-4.098454 6.355932,-0.835292 0,1.288471 4.469015,7.428305 9.931144,13.644074 14.315202,16.290352 17.668435,20.565336 16.093473,20.517323 -0.767458,-0.02339 -8.01292,-6.498877 -16.101027,-14.389956 z"
     id="path4225"
     inkscape:connector-curvature="0"
     transform="matrix(0.8,0,0,0.8,0,-1.2207031e-5)" />
  <path
     style="fill:#ff6600;fill-opacity:1"
     d=""
     id="path4227"
     inkscape:connector-curvature="0"
     transform="matrix(0.8,0,0,0.8,0,-1.2207031e-5)" />
  <path
     style="fill:#ff6600;fill-opacity:1"
     d="m 48.638197,65.810992 c 0.07625,-1.851074 0.452765,-2.227594 0.96001,-0.96001 0.459011,1.147047 0.40256,2.517545 -0.125446,3.04555 -0.528005,0.528006 -0.90356,-0.410487 -0.834564,-2.08554 z"
     id="path4229"
     inkscape:connector-curvature="0"
     transform="matrix(0.8,0,0,0.8,0,-1.2207031e-5)" />
  <path
     style="fill:#ff6600;fill-opacity:1"
     d=""
     id="path4231"
     inkscape:connector-curvature="0"
     transform="matrix(0.8,0,0,0.8,0,-1.2207031e-5)" />
  <path
     style="fill:#ff6600;fill-opacity:1"
     d="M 65.474042,73.823624 C 58.634849,67.304653 52.066011,61.97095 50.876624,61.97095 c -1.248986,0 -2.433252,2.181564 -2.803393,5.164195 L 47.43236,72.29934 47.178064,66.554941 c -0.164214,-3.7095 0.912322,-7.227512 3.038998,-9.931144 3.583427,-4.555588 6.240604,-5.426645 6.240604,-2.04575 0,1.177547 4.469015,7.439833 9.931144,13.91619 13.585932,16.108616 14.493062,17.320808 12.906428,17.24676 -0.762466,-0.03558 -6.982003,-5.398402 -13.821196,-11.917373 z"
     id="path4233"
     inkscape:connector-curvature="0"
     transform="matrix(0.8,0,0,0.8,0,-1.2207031e-5)" />
  <path
     style="fill:#ff6600;fill-opacity:1"
     d=""
     id="path4235"
     inkscape:connector-curvature="0"
     transform="matrix(0.8,0,0,0.8,0,-1.2207031e-5)" />
  <path
     style="fill:#ff6600;fill-opacity:1"
     d="m 65.449851,132.47264 c -3.356736,-2.19644 -7.110708,-3.6069 -8.342161,-3.13435 -1.514818,0.58129 -2.231137,-0.28105 -2.214675,-2.66615 0.04003,-5.80033 2.370636,-7.79992 10.107531,-8.67198 4.040822,-0.45546 7.346951,-1.40196 7.346951,-2.10333 0,-1.79584 -30.07334,-28.916854 -37.554108,-33.867392 -3.407211,-2.254785 -8.483842,-4.557391 -11.281402,-5.116904 -4.390691,-0.878137 -5.338218,-0.464778 -6.926829,3.021844 -1.012195,2.221525 -1.39303,6.417743 -0.8463,9.324931 1.40216,7.455861 9.683392,24.418681 15.517052,31.784281 2.710448,3.42222 4.546267,6.60404 4.079595,7.07071 -1.370916,1.37091 -13.714054,-15.146 -18.700344,-25.02379 -6.546373,-12.96829 -7.416425,-20.150493 -3.105007,-25.631572 2.060094,-2.618985 4.976515,-4.365107 7.290722,-4.365107 5.139294,0 4.884872,-1.724002 -1.795593,-12.167251 -3.108997,-4.860145 -5.394117,-9.095232 -5.078045,-9.411304 0.316072,-0.316072 5.898727,5.916582 12.4059,13.850342 6.507173,7.933761 14.668543,16.989965 18.136378,20.1249 6.209096,5.613044 6.318311,5.644144 7.168814,2.041355 0.789094,-3.342656 1.30232,-2.99205 5.944368,4.060826 2.794389,4.245643 11.151631,14.488901 18.571651,22.762781 7.420019,8.27389 13.286975,15.24741 13.037678,15.4967 -0.249297,0.2493 -4.615263,-0.97867 -9.702146,-2.72881 -5.086885,-1.75015 -11.069662,-3.18208 -13.295061,-3.18208 -3.975552,0 -3.937842,0.11096 2.160219,6.35593 7.053837,7.22378 5.994265,8.01177 -2.925188,2.17542 z"
     id="path4237"
     inkscape:connector-curvature="0"
     transform="matrix(0.8,0,0,0.8,0,-1.2207031e-5)" />
  <path
     style="fill:#ff6600;fill-opacity:1"
     d="m 175.63139,290.18707 c -32.59583,-14.66509 -75.918089,-39.12714 -69.29411,-39.12714 0.44478,0 4.95599,2.50081 10.02492,5.55736 10.30635,6.21469 13.63513,6.98884 12.02654,2.79693 -0.58433,-1.52273 1.762,-0.0213 5.21406,3.33645 8.13204,7.90993 23.29417,16.86233 43.845,25.88805 9.0513,3.97523 16.75483,7.51435 17.11898,7.86471 2.38675,2.29639 -6.03928,-0.51431 -18.93539,-6.31636 z"
     id="path4239"
     inkscape:connector-curvature="0"
     transform="matrix(0.8,0,0,0.8,0,-1.2207031e-5)" />
  <path
     style="fill:#ff6600;fill-opacity:1"
     d=""
     id="path4241"
     inkscape:connector-curvature="0"
     transform="matrix(0.8,0,0,0.8,0,-1.2207031e-5)" />
</svg>
