<?xml version="1.0" encoding="UTF-8" standalone="no"?>
<!-- Created with Inkscape (http://www.inkscape.org/) -->

<svg
   xmlns:dc="http://purl.org/dc/elements/1.1/"
   xmlns:cc="http://creativecommons.org/ns#"
   xmlns:rdf="http://www.w3.org/1999/02/22-rdf-syntax-ns#"
   xmlns:svg="http://www.w3.org/2000/svg"
   xmlns="http://www.w3.org/2000/svg"
   xmlns:sodipodi="http://sodipodi.sourceforge.net/DTD/sodipodi-0.dtd"
   xmlns:inkscape="http://www.inkscape.org/namespaces/inkscape"
   width="100%"
   preserveAspectRatio="none"
   viewBox="0 0 27.447238 26.691579"
   id="svg4159"
   version="1.1"
   inkscape:version="0.91 r13725"
   sodipodi:docname="blacksheep.svg">
  <defs
     id="defs4161" />
  <sodipodi:namedview
     id="base"
     pagecolor="#ffffff"
     bordercolor="#666666"
     borderopacity="1.0"
     inkscape:pageopacity="0.0"
     inkscape:pageshadow="2"
     inkscape:zoom="11.2"
     inkscape:cx="12.212571"
     inkscape:cy="7.0806964"
     inkscape:document-units="px"
     inkscape:current-layer="g6"
     showgrid="false"
     fit-margin-top="0"
     fit-margin-left="0"
     fit-margin-right="0"
     fit-margin-bottom="0"
     inkscape:window-width="1366"
     inkscape:window-height="749"
     inkscape:window-x="-4"
     inkscape:window-y="-4"
     inkscape:window-maximized="1" />
  <metadata
     id="metadata4164">
    <rdf:RDF>
      <cc:Work
         rdf:about="">
        <dc:format>image/svg+xml</dc:format>
        <dc:type
           rdf:resource="http://purl.org/dc/dcmitype/StillImage" />
        <dc:title></dc:title>
      </cc:Work>
    </rdf:RDF>
  </metadata>
  <g
     inkscape:label="Capa 1"
     inkscape:groupmode="layer"
     id="layer1"
     transform="translate(-437.70495,-792.52206)">
    <g
       transform="matrix(1,0,0,-1.31579,435.91621,1090.7739)"
       id="g4">
      <g
         style="fill:#010101;stroke:none"
         transform="matrix(0.1,0,0,-0.1,0,228)"
         id="g6">
        <g
           transform="matrix(0.1,0,0,-0.1,0,228)"
           id="g8">
          <path
             inkscape:connector-curvature="0"
             d="m 2445,2140 c -12,-4 -27,-15 -34,-24 -10,-12 -23,-15 -47,-10 -37,7 -75,-12 -107,-53 -10,-13 -26,-23 -35,-23 -28,0 -82,-38 -92,-65 -7,-19 -17,-25 -41,-25 -35,0 -89,-34 -89,-56 0,-17 -5,-17 -46,-2 -38,14 -83,-1 -118,-39 -20,-22 -24,-22 -36,-9 -19,24 -81,20 -122,-8 -34,-23 -35,-23 -57,-5 -28,23 -88,25 -119,3 -20,-13 -22,-13 -22,0 0,36 -99,59 -140,34 -17,-11 -23,-8 -49,22 -25,31 -34,35 -76,35 -37,0 -51,-5 -66,-24 -18,-22 -20,-22 -44,-7 -37,24 -88,20 -125,-10 l -31,-27 -23,22 c -31,29 -90,28 -120,-2 -22,-22 -22,-22 -54,-4 -44,26 -93,16 -125,-24 -24,-31 -25,-31 -51,-14 -19,13 -38,16 -67,12 -50,-7 -77,-30 -85,-73 -5,-25 -12,-34 -26,-34 -28,0 -76,-27 -88,-49 -5,-11 -10,-36 -10,-55 0,-32 -3,-36 -25,-36 -14,0 -37,-11 -50,-25 -34,-33 -35,-105 -3,-134 l 21,-20 -31,-33 c -44,-44 -44,-97 -1,-140 29,-30 30,-31 15,-63 -9,-18 -16,-45 -16,-59 0,-29 54,-96 77,-96 13,0 13,-3 -1,-25 -33,-50 -12,-125 40,-145 23,-9 23,-10 8,-46 -9,-21 -13,-48 -9,-62 9,-36 59,-82 89,-82 24,0 26,-4 26,-39 0,-58 39,-101 91,-101 21,0 39,-4 39,-10 0,-5 6,-10 14,-10 19,0 7.14286,91.14281 18.14286,-59.85719 7,-91 6,-144 -2,-178 -9,-38 -8,-59 1,-90 l 12,-40 120,-13.57142 119,13.57142 -24,48 c -13,26 -35,57 -49,68 -37,33 -43,98 -18,214 C 773.14286,514.14281 800,435 800,436 c 0,2 14,9 31,18 28,14 31,14 51,-6 18,-18 29,-20 82,-15 44,4 66,2 80,-9 25,-18 73,-18 108,0 23,12 29,12 45,0 25,-19 84,-17 112,3 19,13 28,14 42,5 27,-17 90,-15 110,4 15,13 23,14 53,4 41,-13 100,0 115,27 7,13 14,14 41,5 25,-9 39,-8 65,2 18,8 35,19 39,24 4,7 17,5 36,-5 27,-13 30,-19 30,-63 0,-27 -12.8571,44.92852 -6.8571,1.92852 8,-59 8,-97 -1,-158 -11,-72 -11,-85 4,-113 l 17,-32 114,0 c 63,0 115,3 115,8 0,19 -61,111 -83,125 -42,27 -50,72 -33,169 40,218 52.8571,76.07148 92.8571,84.07148 20,3 59,9 87,11 64,7 114,47 114,93 0,24 5,30 29,36 42,9 75,49 75,90 0,31 3,34 30,37 42,4 80,60 71,106 -5,28 -1,37 30,66 28,26 35,41 35,70 0,31 3,36 24,36 53,0 104,75 85,127 -6,17 -2,28 20,51 18,18 31,44 36,71 l 7,44 62,-7 c 54,-5 65,-3 80,12 9,11 14,26 11,34 -4,10 5,17 32,24 37,9 38,11 36,49 -2,31 -10,47 -36,71 -18,17 -52,61 -75,97 -56,88 -57,127 -5,172 33,28 37,36 37,82 1,63 -28,100 -86,109 -31,5 -41,13 -55,43 -25,50 -62,69 -104,54 -28,-11 -32,-10 -36,8 -10,37 -73,58 -118,39 z"
             id="path10"
             sodipodi:nodetypes="ccccscssccccccsccscccccscccccscssccccccssccccsssssccccccsccscscccccccccccccsccccssccccscscccsscccccccccccccccccc" />
        </g>
      </g>
      <g
         style="fill:#ffffff;stroke:none"
         id="g12" />
    </g>
  </g>
</svg>
