<?xml version="1.0" encoding="UTF-8" standalone="no"?>
<!-- Generator: Adobe Illustrator 19.0.0, SVG Export Plug-In . SVG Version: 6.00 Build 0)  -->

<svg
   xmlns:dc="http://purl.org/dc/elements/1.1/"
   xmlns:cc="http://creativecommons.org/ns#"
   xmlns:rdf="http://www.w3.org/1999/02/22-rdf-syntax-ns#"
   xmlns:svg="http://www.w3.org/2000/svg"
   xmlns="http://www.w3.org/2000/svg"
   xmlns:sodipodi="http://sodipodi.sourceforge.net/DTD/sodipodi-0.dtd"
   xmlns:inkscape="http://www.inkscape.org/namespaces/inkscape"
   version="1.1"
   id="Capa_1"
   x="0px"
   y="0px"
   viewBox="0 0 60 60"
   width="100%"
   preserveAspectRatio="none"
   inkscape:version="0.91 r13725"
   sodipodi:docname="briefcase.svg"
   style="enable-background:new 0 0 60 60;">
  <metadata
     id="metadata39">
    <rdf:RDF>
      <cc:Work
         rdf:about="">
        <dc:format>image/svg+xml</dc:format>
        <dc:type
           rdf:resource="http://purl.org/dc/dcmitype/StillImage" />
      </cc:Work>
    </rdf:RDF>
  </metadata>
  <defs
     id="defs37" />
  <sodipodi:namedview
     pagecolor="#ffffff"
     bordercolor="#666666"
     borderopacity="1"
     objecttolerance="10"
     gridtolerance="10"
     guidetolerance="10"
     inkscape:pageopacity="0"
     inkscape:pageshadow="2"
     inkscape:window-width="1366"
     inkscape:window-height="749"
     id="namedview35"
     showgrid="false"
     inkscape:zoom="3.9333333"
     inkscape:cx="30"
     inkscape:cy="25.500002"
     inkscape:window-x="-4"
     inkscape:window-y="-4"
     inkscape:window-maximized="1"
     inkscape:current-layer="Capa_1" />
  <path
     d="m 57.244237,10.374377 -1.99,0 0,-3.5682953 -10,0 0,3.5682953 -4,0 0,-6.8915675 c 0,-2.1029152 -1.438,-3.81331797 -3.206,-3.81331797 l -15.588,0 c -1.768,0 -3.206,1.71040277 -3.206,3.81331797 l 0,6.8915675 -4,0 0,-3.5682953 -9.9999997,0 0,3.5682953 -1.99,0 c -1.659,0 -3.01000001,1.606923 -3.01000001,3.58019 l 0,42.795753 c 0,1.973267 1.35100001,3.580189 3.01000001,3.580189 l 4.99,0 1.9999997,0 40,0 2,0 1,0 3.99,0 c 1.659,0 3.01,-1.606922 3.01,-3.580189 l 0,-42.795753 c 0,-1.973267 -1.351,-3.58019 -3.01,-3.58019 z m -35.99,-6.8915675 c 0,-0.790972 0.541,-1.4344546 1.206,-1.4344546 l 15.588,0 c 0.665,0 1.206,0.6434826 1.206,1.4344546 l 0,6.8915675 -18,0 0,-6.8915675 z M 8.2542373,57.951646 l 0,-45.198405 1.9999997,0 0,45.198405 -1.9999997,0 z m 41.9999997,0 0,-45.198405 2,0 0,45.198405 -2,0 z"
     id="path3"
     inkscape:connector-curvature="0" />
  <g
     id="g5" />
  <g
     id="g7" />
  <g
     id="g9" />
  <g
     id="g11" />
  <g
     id="g13" />
  <g
     id="g15" />
  <g
     id="g17" />
  <g
     id="g19" />
  <g
     id="g21" />
  <g
     id="g23" />
  <g
     id="g25" />
  <g
     id="g27" />
  <g
     id="g29" />
  <g
     id="g31" />
  <g
     id="g33" />
  <rect
     style="opacity:1;fill:#000000;fill-opacity:1;stroke:none;stroke-width:4;stroke-miterlimit:4;stroke-dasharray:none;stroke-opacity:0.37668164"
     id="rect4199"
     width="16.016949"
     height="46.525425"
     x="6.8644066"
     y="11.440678" />
  <rect
     style="opacity:1;fill:#000000;fill-opacity:1;stroke:none;stroke-width:4;stroke-miterlimit:4;stroke-dasharray:none;stroke-opacity:0.37668164"
     id="rect4201"
     width="7.3728814"
     height="47.796612"
     x="46.271187"
     y="11.694915" />
</svg>
