<?xml version="1.0" encoding="UTF-8" standalone="no"?>
<!-- Created with Inkscape (http://www.inkscape.org/) -->

<svg
   xmlns:dc="http://purl.org/dc/elements/1.1/"
   xmlns:cc="http://creativecommons.org/ns#"
   xmlns:rdf="http://www.w3.org/1999/02/22-rdf-syntax-ns#"
   xmlns:svg="http://www.w3.org/2000/svg"
   xmlns="http://www.w3.org/2000/svg"
   xmlns:sodipodi="http://sodipodi.sourceforge.net/DTD/sodipodi-0.dtd"
   xmlns:inkscape="http://www.inkscape.org/namespaces/inkscape"
   width="100%"
   preserveAspectRatio="none"
   viewBox="0 0 24.754565 12.809368"
   id="svg4243"
   version="1.1"
   inkscape:version="0.91 r13725"
   sodipodi:docname="bus.svg">
  <defs
     id="defs4245" />
  <sodipodi:namedview
     id="base"
     pagecolor="#ffffff"
     bordercolor="#666666"
     borderopacity="1.0"
     inkscape:pageopacity="0.0"
     inkscape:pageshadow="2"
     inkscape:zoom="11.2"
     inkscape:cx="15.870831"
     inkscape:cy="14.688898"
     inkscape:document-units="px"
     inkscape:current-layer="g4"
     showgrid="false"
     fit-margin-top="0"
     fit-margin-left="0"
     fit-margin-right="0"
     fit-margin-bottom="0"
     inkscape:window-width="1366"
     inkscape:window-height="749"
     inkscape:window-x="-4"
     inkscape:window-y="-4"
     inkscape:window-maximized="1" />
  <metadata
     id="metadata4248">
    <rdf:RDF>
      <cc:Work
         rdf:about="">
        <dc:format>image/svg+xml</dc:format>
        <dc:type
           rdf:resource="http://purl.org/dc/dcmitype/StillImage" />
        <dc:title></dc:title>
      </cc:Work>
    </rdf:RDF>
  </metadata>
  <g
     inkscape:label="Capa 1"
     inkscape:groupmode="layer"
     id="layer1"
     transform="translate(-378.962,-888.57215)">
    <g
       transform="matrix(1.01695,0,0,-1,375.58573,1178.4708)"
       id="g4">
      <g
         style="fill:#181818;stroke:none"
         transform="matrix(0.1,0,0,-0.1,0,300)"
         id="g6">
        <g
           transform="matrix(0.1,0,0,-0.1,0,300)"
           id="g8">
          <path
             d="m 485,1981.7143 c -47,-12 -72,-28 -102,-68 l -28,-36 0,-326.7143 0,-532.0714 862.5595,3.9285 827.4405,-13.9285 3,-27.00003 c 4,-33 8,-34 59,-9 144,70.00003 244.4405,284.14283 357.4405,175.14283 42,-40 65,-83 92,-163.99997 4,-15 18,-18 85,-18 109,0 120,10 124,112.99997 3,84 -1,93 -48,99 l -30,3 -5,120 c -5,124 2.5595,42.9286 -31.4405,53.9286 -26,8 -45,39 -65,110 -25,85 -48,157 -56,180 -4,11 -12,36 -17,55 -100,340 -94,236.7143 -156,250.7143 -176,37 -244,40 -1051,39 -435,-1 -804,-4 -821,-8 z m 1841,-184 c 20,-20 94,-113.7143 139,-254.7143 20,-62 14,-98 -17,-107 -13,-3 -75,-6 -139,-6 -171,0 -163,-11 -167,232 -3,214 2,148.7143 53,160.7143 48,11 108,-1 131,-25 z m -1567,-5 c 8,-13 4,-316.7143 -4,-339.7143 -3,-8 -22,-13 -49,-13 -53,0 -76,8 -76,25 0,8 -12,27 -26,44 -43,51 -99,39 -134,-29 -22,-43 -29,-47 -48,-28 -17,17 -17,329.7143 1,347.7143 17,17 324,12 336,-7 z m 821,-2 c 12,-17 8,-319.7143 -4,-338.7143 -13,-22 -36,-12 -50,22 -8,20 -28,42 -45,51 -39,19 -39,29 -1,57 17,12 35,38 41,58 23,77 -62,78.7143 -131,50.7143 -47,-20 -80,24.2857 -80,-20.7143 0,-51 48,-110 90,-110 35,0 45,-13 24,-31 -9,-8 -27,-31 -40,-51 -23,-36 -27,-38 -79,-38 -43,0 -56,4 -64,19 -11,19 -14,279.7143 -5,318.7143 7,28 11,29 187,28 120,0 150,-3 157,-15 z m 412,2 c 5,-5 7,-15.7143 6,-133.7143 l -3,-214 -59,-3 c -59,-3 -96,13 -96,43 0,6 -11,22 -25,35 -34,32 -72,19 -102,-35 -43,-77 -48,-59 -51,182 l -2,132.7143 67,3 c 107,5 256,-1 265,-10 z m -824,-4 c 9,-9 12,18.2857 12,-130.7143 0,-239 5,-228 -98,-228 -59,0 -61,1 -99,45 l -40,44 -31,-22 c -17,-12 -33,-30 -36,-39 -4,-19 -31,-24 -41,-8 -8,12 -8,327.7143 0,340.7143 9,15 318,13 333,-2 z"
             id="path10"
             inkscape:connector-curvature="0"
             sodipodi:nodetypes="cccccccccccsccccccccccccccscccccssccssccccccccssccsccccsccsscccccssssccccccs" />
        </g>
        <g
           transform="matrix(0.1,0,0,-0.1,0,300)"
           id="g12">
          <path
             d="m 533,1794 c -44,-19 -63,-50 -63,-106 0,-64 29,-98 91,-105 41,-5 50,-2 82,27 33,28 37,37 37,79 0,39 -5,52 -27,73 -29,27 -66,49 -80,47 -4,0 -22,-7 -40,-15 z"
             id="path14"
             inkscape:connector-curvature="0" />
        </g>
        <g
           transform="matrix(0.1,0,0,-0.1,0,300)"
           id="g16">
          <path
             d="m 1762,1785 c -40,-18 -66,-73 -57,-121 8,-48 56,-84 108,-84 64,1 107,46 107,112 0,76 -84,126 -158,93 z"
             id="path18"
             inkscape:connector-curvature="0" />
        </g>
        <g
           transform="matrix(0.1,0,0,-0.1,0,300)"
           id="g20">
          <path
             d="m 904,1722 c -71,-57 -52,-163 34,-191 34,-11 47,-12 72,-1 74,30 94,124 39,179 -25,26 -38,31 -77,31 -29,0 -55,-7 -68,-18 z"
             id="path22"
             inkscape:connector-curvature="0" />
        </g>
        <g
           transform="matrix(0.1,0,0,-0.1,0,300)"
           id="g24">
          <path
             d="m 335,1039 c -4,-11 -4,-48 0,-81 8,-70 37,-108 80,-108 22,0 30,8 46,48 35,82 53,114 72,126 9,6 17,16 17,23 0,10 -27,13 -104,13 -97,0 -105,-2 -111,-21 z"
             id="path26"
             inkscape:connector-curvature="0" />
        </g>
        <g
           transform="matrix(0.1,0,0,-0.1,-0.87797546,286.60714)"
           id="g28">
          <path
             d="M 665,1035 C 599,1000 582,984 553,926 494,809 538,660 651,595 c 27,-16 52,-20 119,-20 78,0 89,3 130,30 69,47 104,106 108,187 5,82 -10,129 -56,180 -48,53 -104,80 -177,85 -50,3 -68,0 -110,-22 z M 846,889 c 28,-26 37,-94 18,-130 -29,-57 -89,-74 -158,-45 -26,11 -36,22 -42,48 -17,75 3,133 50,148 43,13 107,3 132,-21 z"
             id="path30"
             inkscape:connector-curvature="0" />
        </g>
        <g
           transform="matrix(0.1,0,0,-0.1,0,300)"
           id="g32">
          <path
             d="m 987,1054 c -4,-4 7,-23 25,-41 19,-20 42,-60 54,-96 l 21,-62 418,-3 c 280,-1 422,1 430,8 7,6 21,34 30,62 9,29 30,68 46,87 16,20 29,38 29,41 0,8 -1044,13 -1053,4 z"
             id="path34"
             inkscape:connector-curvature="0" />
        </g>
        <g
           transform="matrix(0.1,0,0,-0.1,-0.87797546,285.71429)"
           id="g36">
          <path
             d="m 2182,1046 c -62,-20 -109,-60 -138,-119 -23,-45 -26,-60 -22,-129 4,-67 9,-85 34,-121 47,-66 101,-98 175,-104 94,-8 142,9 200,69 54,56 69,95 69,178 0,157 -166,275 -318,226 z m 147,-145 c 9,-5 22,-26 30,-46 11,-30 11,-45 1,-82 -15,-50 -47,-73 -104,-73 -56,0 -84,18 -102,66 -16,41 -16,47 0,89 14,35 24,47 49,54 34,11 99,6 126,-8 z"
             id="path38"
             inkscape:connector-curvature="0" />
        </g>
      </g>
      <g
         style="fill:#a2a2a2;stroke:none"
         transform="matrix(0.1,0,0,-0.1,0,300)"
         id="g40">
        <g
           transform="matrix(0.1,0,0,-0.1,0,300)"
           id="g42">
          <path
             d="m 2195,1912 c -51,-12 -56,-36 -53,-250 4,-243 -4,-232 167,-232 207,0 204,-9 89,300 -28,74 -60,145 -72,157 -23,24 -83,36 -131,25 z"
             id="path44"
             inkscape:connector-curvature="0" />
        </g>
        <g
           transform="matrix(0.1,0,0,-0.1,0,300)"
           id="g46">
          <path
             d="m 423,1889 c -18,-18 -18,-420 -1,-437 19,-19 26,-15 48,28 35,68 91,80 134,29 14,-17 26,-36 26,-44 0,-17 23,-25 76,-25 27,0 46,5 49,13 8,23 12,416 4,429 -12,19 -319,24 -336,7 z m 180,-90 c 12,-6 34,-23 50,-37 22,-21 27,-34 27,-73 0,-42 -4,-51 -37,-79 -32,-29 -41,-32 -82,-27 -62,7 -91,41 -91,105 0,56 19,87 63,106 41,18 44,18 70,5 z"
             id="path48"
             inkscape:connector-curvature="0" />
        </g>
        <g
           transform="matrix(0.1,0,0,-0.1,0,300)"
           id="g50">
          <path
             d="m 1258,1892 c -9,-2 -19,-13 -22,-25 -9,-39 -6,-389 5,-408 8,-15 21,-19 64,-19 52,0 56,2 79,38 13,20 31,43 40,51 21,18 11,31 -24,31 -42,0 -90,59 -90,110 0,45 33,90 80,110 69,28 154,-63 131,-140 -6,-20 -24,-46 -41,-58 -38,-28 -38,-38 1,-57 17,-9 37,-31 45,-51 14,-34 37,-44 50,-22 12,19 16,411 4,428 -7,12 -37,15 -157,15 -81,0 -155,-1 -165,-3 z"
             id="path52"
             inkscape:connector-curvature="0" />
        </g>
        <g
           transform="matrix(0.1,0,0,-0.1,0,300)"
           id="g54">
          <path
             d="m 1727,1892 -67,-3 2,-222 c 3,-241 8,-259 51,-182 30,54 68,67 102,35 14,-13 25,-29 25,-35 0,-30 37,-46 96,-43 l 59,3 3,214 c 1,118 -1,218 -6,223 -9,9 -158,15 -265,10 z m 166,-133 c 43,-47 34,-122 -23,-166 -8,-7 -34,-13 -57,-13 -82,0 -132,76 -99,154 29,70 124,84 179,25 z"
             id="path56"
             inkscape:connector-curvature="0" />
        </g>
        <g
           transform="matrix(0.1,0,0,-0.1,0,300)"
           id="g58">
          <path
             d="m 835,1880 c -8,-13 -8,-418 0,-430 10,-16 37,-11 41,8 3,9 19,27 36,39 l 31,22 40,-44 c 38,-44 40,-45 99,-45 103,0 98,-11 98,228 0,149 -3,211 -12,220 -15,15 -324,17 -333,2 z m 214,-171 c 55,-55 35,-149 -39,-179 -66,-27 -150,30 -150,103 0,65 44,106 112,107 39,0 52,-5 77,-31 z"
             id="path60"
             inkscape:connector-curvature="0" />
        </g>
        <g
           transform="matrix(0.1,0,0,-0.1,-0.87797546,286.60714)"
           id="g62">
          <path
             d="m 714,910 c -47,-15 -67,-73 -50,-148 6,-26 16,-37 42,-48 69,-29 129,-12 158,45 19,36 10,104 -18,130 -25,24 -89,34 -132,21 z"
             id="path64"
             inkscape:connector-curvature="0" />
        </g>
        <g
           transform="matrix(0.1,0,0,-0.1,-0.87797546,286.60714)"
           id="g66">
          <path
             d="m 2203,909 c -25,-7 -35,-19 -49,-54 -16,-42 -16,-48 0,-89 18,-48 46,-66 102,-66 57,0 89,23 104,73 10,37 10,52 -1,82 -8,20 -21,41 -30,46 -27,14 -92,19 -126,8 z"
             id="path68"
             inkscape:connector-curvature="0" />
        </g>
      </g>
    </g>
  </g>
</svg>
