<?xml version="1.0" encoding="UTF-8" standalone="no"?>
<!-- Created with Inkscape (http://www.inkscape.org/) -->

<svg
   xmlns:dc="http://purl.org/dc/elements/1.1/"
   xmlns:cc="http://creativecommons.org/ns#"
   xmlns:rdf="http://www.w3.org/1999/02/22-rdf-syntax-ns#"
   xmlns:svg="http://www.w3.org/2000/svg"
   xmlns="http://www.w3.org/2000/svg"
   xmlns:sodipodi="http://sodipodi.sourceforge.net/DTD/sodipodi-0.dtd"
   xmlns:inkscape="http://www.inkscape.org/namespaces/inkscape"
   width="100%"
   preserveAspectRatio="none"
   viewBox="0 0 20.0309 18.328246"
   id="svg4207"
   version="1.1"
   inkscape:version="0.91 r13725"
   sodipodi:docname="calendar.svg">
  <defs
     id="defs4209" />
  <sodipodi:namedview
     id="base"
     pagecolor="#ffffff"
     bordercolor="#666666"
     borderopacity="1.0"
     inkscape:pageopacity="0.0"
     inkscape:pageshadow="2"
     inkscape:zoom="7.9195959"
     inkscape:cx="45.692292"
     inkscape:cy="7.0955481"
     inkscape:document-units="px"
     inkscape:current-layer="g6"
     showgrid="false"
     fit-margin-top="0"
     fit-margin-left="0"
     fit-margin-right="0"
     fit-margin-bottom="0"
     inkscape:window-width="1366"
     inkscape:window-height="749"
     inkscape:window-x="-4"
     inkscape:window-y="-4"
     inkscape:window-maximized="1" />
  <metadata
     id="metadata4212">
    <rdf:RDF>
      <cc:Work
         rdf:about="">
        <dc:format>image/svg+xml</dc:format>
        <dc:type
           rdf:resource="http://purl.org/dc/dcmitype/StillImage" />
        <dc:title></dc:title>
      </cc:Work>
    </rdf:RDF>
  </metadata>
  <g
     inkscape:label="Capa 1"
     inkscape:groupmode="layer"
     id="layer1"
     transform="translate(-473.09424,-837.81225)">
    <g
       transform="matrix(1,0,0,-1,468.09424,1131.1405)"
       id="g4">
      <g
         style="fill:#050505;stroke:none"
         transform="matrix(0.1,0,0,-0.1,0,300)"
         id="g6">
        <g
           transform="matrix(0.1,0,0,-0.1285197,1.2626907,359.68011)"
           id="g8">
          <path
             inkscape:connector-curvature="0"
             d="m 1045.3731,2264.2418 c -50.00001,-12.7398 -58.00001,-26.8446 -58.00001,-104.6487 0,-57.7844 3,-73.7092 16.00001,-84.1741 35,-26.3897 113,-35.0346 167,-19.1098 55,16.8348 56,20.0198 57,104.1938 l 0,78.7141 -28,14.1049 c -23,11.8298 -37,14.5598 -78,15.9248 -32,1.365 -58,-0.455 -76,-5.005 z"
             id="path10" />
        </g>
        <g
           transform="matrix(0.1,0,0,-0.05867208,0,214.37709)"
           id="g12">
          <path
             inkscape:connector-curvature="0"
             d="m 1824,2490 c -12,-4 -31,-21 -43,-36 -20,-25 -21,-38 -21,-196 0,-140 3,-173 16,-194 49,-74 162,-70 208,6 23,39 24,326 1,370 -26,51 -102,74 -161,50 z"
             id="path14" />
        </g>
        <g
           transform="matrix(0.1,0,0,-0.1,0,300)"
           id="g16">
          <path
             inkscape:connector-curvature="0"
             d="m 500,1375 0,-875 999,0 c 791,0 1000,3 1002,12 2,7 3,401 1,876 l -2,862 -185,0 -185,0 0,-90 c 0,-140 -39,-212 -144,-261 -104,-49 -202,-32 -287,50 -57,55 -79,119 -79,228 l 0,73 -119,0 -118,0 -5,-99 c -6,-113 -28,-165 -95,-220 -80,-66 -174,-77 -269,-32 -105,49 -144,121 -144,261 l 0,90 -185,0 -185,0 0,-875 z m 624,119 c 3,-9 6,-64 6,-124 0,-80 -4,-111 -14,-119 -9,-8 -52,-11 -127,-9 l -114,3 -3,119 c -1,66 0,126 2,133 4,10 36,13 125,13 99,0 120,-3 125,-16 z m 501,-119 0,-130 -125,0 -125,0 -3,119 c -1,66 0,126 2,133 4,11 33,13 128,11 l 123,-3 0,-130 z m 500,0 0,-130 -119,-3 c -89,-2 -121,1 -128,10 -13,21 -10,232 4,246 9,9 47,12 128,10 l 115,-3 0,-130 z m -1000,-505 0,-125 -127,-3 -128,-3 0,131 0,131 128,-3 127,-3 0,-125 z m 503,3 -3,-128 -125,0 -125,0 -3,114 c -1,63 0,121 2,128 4,10 37,13 131,13 l 126,0 -3,-127 z m 492,119 c 0,-14 -234,-241 -242,-236 -10,6 -11,228 -1,237 9,10 243,8 243,-1 z"
             id="path18" />
        </g>
      </g>
      <g
         style="fill:#a1a1a1;stroke:none"
         transform="matrix(0.1,0,0,-0.1,0,300)"
         id="g20">
        <g
           transform="matrix(0.1,0,0,-0.1,0,300)"
           id="g22">
          <path
             inkscape:connector-curvature="0"
             d="m 874,1497 c -2,-7 -3,-67 -2,-133 l 3,-119 114,-3 c 75,-2 118,1 127,9 10,8 14,39 14,119 0,60 -3,115 -6,124 -5,13 -26,16 -125,16 -89,0 -121,-3 -125,-13 z"
             id="path24" />
        </g>
        <g
           transform="matrix(0.1,0,0,-0.1,0,300)"
           id="g26">
          <path
             inkscape:connector-curvature="0"
             d="m 1374,1497 c -2,-7 -3,-67 -2,-133 l 3,-119 125,0 125,0 0,130 0,130 -123,3 c -95,2 -124,0 -128,-11 z"
             id="path28" />
        </g>
        <g
           transform="matrix(0.1,0,0,-0.1,0,300)"
           id="g30">
          <path
             inkscape:connector-curvature="0"
             d="m 1882,1498 c -14,-14 -17,-225 -4,-246 7,-9 39,-12 128,-10 l 119,3 0,130 0,130 -115,3 c -81,2 -119,-1 -128,-10 z"
             id="path32" />
        </g>
        <g
           transform="matrix(0.1,0,0,-0.1,0,300)"
           id="g34">
          <path
             inkscape:connector-curvature="0"
             d="m 870,870 0,-131 128,3 127,3 0,125 0,125 -127,3 -128,3 0,-131 z"
             id="path36" />
        </g>
        <g
           transform="matrix(0.1,0,0,-0.1,0,300)"
           id="g38">
          <path
             inkscape:connector-curvature="0"
             d="m 1374,987 c -2,-7 -3,-65 -2,-128 l 3,-114 125,0 125,0 3,128 3,127 -126,0 c -94,0 -127,-3 -131,-13 z"
             id="path40" />
        </g>
        <g
           transform="matrix(0.1,0,0,-0.1,0,300)"
           id="g42">
          <path
             inkscape:connector-curvature="0"
             d="m 1877,993 c -10,-9 -9,-231 1,-237 8,-5 242,222 242,236 0,9 -234,11 -243,1 z"
             id="path44" />
        </g>
      </g>
    </g>
  </g>
</svg>
