<?xml version="1.0" encoding="UTF-8" standalone="no"?>
<!-- Created with Inkscape (http://www.inkscape.org/) -->

<svg
   xmlns:dc="http://purl.org/dc/elements/1.1/"
   xmlns:cc="http://creativecommons.org/ns#"
   xmlns:rdf="http://www.w3.org/1999/02/22-rdf-syntax-ns#"
   xmlns:svg="http://www.w3.org/2000/svg"
   xmlns="http://www.w3.org/2000/svg"
   xmlns:sodipodi="http://sodipodi.sourceforge.net/DTD/sodipodi-0.dtd"
   xmlns:inkscape="http://www.inkscape.org/namespaces/inkscape"
   width="100%"
   preserveAspectRatio="none"
   viewBox="0 0 29.979723 30.012687"
   id="svg4159"
   version="1.1"
   inkscape:version="0.91 r13725"
   sodipodi:docname="cindrella.svg">
  <defs
     id="defs4161" />
  <sodipodi:namedview
     id="base"
     pagecolor="#ffffff"
     bordercolor="#666666"
     borderopacity="1.0"
     inkscape:pageopacity="0.0"
     inkscape:pageshadow="2"
     inkscape:zoom="0.35"
     inkscape:cx="-595.72442"
     inkscape:cy="312.1492"
     inkscape:document-units="px"
     inkscape:current-layer="layer1"
     showgrid="false"
     fit-margin-top="0"
     fit-margin-left="0"
     fit-margin-right="0"
     fit-margin-bottom="0"
     inkscape:window-width="1366"
     inkscape:window-height="749"
     inkscape:window-x="-4"
     inkscape:window-y="-4"
     inkscape:window-maximized="1" />
  <metadata
     id="metadata4164">
    <rdf:RDF>
      <cc:Work
         rdf:about="">
        <dc:format>image/svg+xml</dc:format>
        <dc:type
           rdf:resource="http://purl.org/dc/dcmitype/StillImage" />
        <dc:title></dc:title>
      </cc:Work>
    </rdf:RDF>
  </metadata>
  <g
     inkscape:label="Capa 1"
     inkscape:groupmode="layer"
     id="layer1"
     transform="translate(-470.72442,-814.49871)">
    <g
       transform="matrix(1.27119,0,0,-1,470.71245,1114.4914)"
       id="g4">
      <g
         style="fill:#010101;stroke:none"
         transform="matrix(0.1,0,0,-0.1,0,300)"
         id="g6">
        <g
           style="stroke-width:20"
           transform="matrix(0.1,0,0,-0.1,0,300)"
           id="g8">
          <path
             inkscape:connector-curvature="0"
             d="m 1574,2965 c -16,-19 -42,-51 -58,-70 l -28,-36 16,-57 c 9,-32 16,-70 16,-84 0,-14 9,-37 20,-51 25,-32 25,-52 -1,-88 -22,-31 -16,-37 15,-14 11,8 27,15 35,15 30,-1 -30,-40 -61,-40 -21,0 -39,11 -67,40 -21,22 -45,40 -54,40 -26,0 -48,-45 -54,-110 -5,-51 -10,-64 -33,-80 -15,-11 -41,-32 -58,-48 -17,-16 -75,-52 -129,-80 C 987,2224 869,2133 833,2068 793,1999 765,1969 704,1935 376,1748 104,1508 24,1335 -27,1226 6,1102 129,937 178,871 199,852 342,747 485,640 524,594 525,531 c 1,-34 5,-47 18,-49 12,-3 15,-10 10,-33 -4,-21 -1,-30 11,-35 11,-4 16,-18 16,-44 0,-145 158,-250 377,-250 85,0 93,-2 93,-19 0,-29 16,-34 49,-16 39,20 40,19 51,-10 12,-33 49,-33 84,0 33,31 36,31 36,1 0,-36 28,-40 80,-13 l 47,24 10,-28 c 16,-40 50,-38 92,5 l 33,34 38,-40 c 43,-45 78,-49 95,-10 10,23 29,29 40,12 10,-16 55,-12 55,5 0,19 9,19 34,0 12,-9 23,-11 30,-5 18,14 75,4 146,-26 36,-15 92,-29 125,-31 l 60,-5 27,59 c 38,79 92,243 109,328 9,47 14,139 14,280 0,222 -13,322 -55,420 l -19,45 29,69 c 51,119 70,225 71,384 0,139 -18,264 -43,294 -14,17 -3,44 37,95 37,46 42,72 25,143 -11,51 -78,113 -165,155 -46,22 -80,48 -119,93 -31,34 -56,67 -56,73 0,6 11,21 25,34 27,25 32,59 13,78 -26,26 -105,7 -138,-33 -25,-30 -140,4 -140,41 0,9 14,37 32,63 32,46 37,74 38,226 0,87 -34,128 -107,130 -27,0 -58,6 -70,13 -36,20 -59,14 -89,-23 z m -75,-779 c 22,-65 29,-101 25,-127 l -6,-36 -66,-6 c -36,-4 -97,-19 -136,-33 -56,-22 -82,-40 -134,-93 l -64,-65 -37,41 c -20,23 -58,65 -85,95 -41,45 -49,60 -51,98 l -3,46 51,26 c 29,15 72,32 97,38 80,20 154,53 200,90 25,19 61,48 80,62 l 35,27 32,-36 c 21,-23 43,-68 62,-127 z m 477,100 c 16,-43 197,-148 277,-162 l 41,-7 -35,-31 c -20,-17 -43,-44 -53,-60 -19,-30 -131,-88 -203,-104 -36,-8 -44,-6 -73,16 -18,14 -61,35 -94,47 l -61,21 3,40 c 4,50 72,167 126,216 44,41 63,47 72,24 z M 915,2040 c 3,-5 -3,-10 -15,-10 -12,0 -18,5 -15,10 3,6 10,10 15,10 5,0 12,-4 15,-10 z"
             id="path10" />
        </g>
      </g>
      <g
         style="fill:#ffffff;stroke:none"
         id="g12" />
    </g>
  </g>
</svg>
