<?xml version="1.0" encoding="UTF-8" standalone="no"?>
<!--?xml version="1.0" standalone="no"?-->

<svg
   xmlns:dc="http://purl.org/dc/elements/1.1/"
   xmlns:cc="http://creativecommons.org/ns#"
   xmlns:rdf="http://www.w3.org/1999/02/22-rdf-syntax-ns#"
   xmlns:svg="http://www.w3.org/2000/svg"
   xmlns="http://www.w3.org/2000/svg"
   xmlns:sodipodi="http://sodipodi.sourceforge.net/DTD/sodipodi-0.dtd"
   xmlns:inkscape="http://www.inkscape.org/namespaces/inkscape"
   version="1.0"
   width="100%"

   viewBox="0 0 194.56354 121.92355"
   preserveAspectRatio="none"
   id="svg2"
   inkscape:version="0.91 r13725"
   sodipodi:docname="windy-weather-symbol.svg">
  <metadata
     id="metadata17">
    <rdf:RDF>
      <cc:Work
         rdf:about="">
        <dc:format>image/svg+xml</dc:format>
        <dc:type
           rdf:resource="http://purl.org/dc/dcmitype/StillImage" />
        <dc:title></dc:title>
      </cc:Work>
    </rdf:RDF>
  </metadata>
  <defs
     id="defs15" />
  <sodipodi:namedview
     pagecolor="#ffffff"
     bordercolor="#666666"
     borderopacity="1"
     objecttolerance="10"
     gridtolerance="10"
     guidetolerance="10"
     inkscape:pageopacity="0"
     inkscape:pageshadow="2"
     inkscape:window-width="1366"
     inkscape:window-height="749"
     id="namedview13"
     showgrid="false"
     fit-margin-top="0"
     fit-margin-left="0"
     fit-margin-right="0"
     fit-margin-bottom="0"
     inkscape:zoom="0.62933333"
     inkscape:cx="117.12514"
     inkscape:cy="17.657366"
     inkscape:window-x="-4"
     inkscape:window-y="-4"
     inkscape:window-maximized="1"
     inkscape:current-layer="svg2" />
  <g
     transform="matrix(0.1,0,0,-0.1,-22.299891,257.79766)"
     id="g4"
     style="fill:#121212;stroke:none">
    <path
       d="m 780,2555 c -84,-30 -184,-96 -227,-152 -68,-87 -113,-208 -113,-305 0,-43 -3,-49 -32,-64 -56,-29 -124,-102 -151,-162 -92,-204 10,-433 218,-497 72,-21 1365,-22 1436,-1 72,22 103,41 158,97 160,163 122,439 -76,556 -33,19 -43,31 -43,51 0,45 -26,125 -53,169 -107,170 -320,234 -504,153 l -46,-20 -30,35 c -39,47 -136,113 -206,138 -38,14 -88,22 -156,24 -88,3 -109,0 -175,-22 z m 323,-70 c 84,-34 156,-89 199,-154 l 33,-49 30,24 c 46,37 128,64 195,64 91,0 164,-31 231,-99 61,-62 85,-116 96,-213 5,-54 8,-58 39,-68 50,-17 120,-85 150,-147 56,-113 29,-248 -65,-336 -91,-86 -56,-82 -821,-82 l -675,0 -47,23 c -113,53 -178,154 -178,273 0,117 79,232 187,271 31,11 34,16 29,41 -10,48 13,169 44,234 17,37 51,85 82,117 129,129 305,167 471,101 z"
       id="node1"
       class="node"
       inkscape:connector-curvature="0" />
  </g>
  <g
     transform="matrix(0.1,0,0,-0.1,-22.299891,257.79766)"
     id="g10"
     style="fill:#9f9f9f;stroke:none">
    <path
       d="m 830,2502 c -133,-45 -229,-125 -280,-235 -31,-65 -54,-186 -44,-234 5,-25 2,-30 -29,-41 -62,-22 -125,-80 -157,-145 -75,-149 -10,-324 148,-399 l 47,-23 675,0 c 765,0 730,-4 821,82 94,88 121,223 65,336 -30,62 -100,130 -150,147 -31,10 -34,14 -39,68 -11,97 -35,151 -96,213 -67,68 -140,99 -231,99 -67,0 -149,-27 -195,-64 l -30,-24 -33,49 c -96,144 -316,223 -472,171 z"
       id="node6"
       class="node"
       inkscape:connector-curvature="0" />
  </g>
  <path
     style="fill:#000000;fill-opacity:1"
     d="M 31.694406,149.39908 C 7.8320011,143.73914 -6.0890562,112.61422 5.028434,89.778856 9.4879375,80.619022 12.128312,77.440895 21.164184,70.356819 27.270222,65.569717 27.750158,64.604202 28.581614,55.43477 29.765565,42.377947 38.576279,24.444314 47.603176,16.717627 61.891861,4.4870438 77.606268,-0.33431029 96.994005,1.5639737 111.07106,2.9422804 120.92519,7.4831919 132.26295,17.816365 l 8.21452,7.486661 8.20316,-3.116957 c 8.99435,-3.417587 22.99172,-4.057642 32.28557,-1.476318 15.83163,4.397161 29.89395,19.798571 33.34856,36.524178 1.69378,8.200472 2.71498,9.871021 8.54698,13.981799 8.45841,5.962038 14.03115,13.390211 17.24622,22.988361 3.20638,9.572141 3.21156,15.799861 0.0221,26.539911 -3.46879,11.68066 -17.25796,25.65083 -27.97233,28.33949 -8.52008,2.13803 -171.577685,2.42317 -180.463329,0.31559 z m 176.143454,-6.41597 c 9.68545,-1.83681 18.41328,-9.00418 24.15415,-19.83561 4.60681,-8.69178 4.59797,-23.07862 -0.0195,-31.888052 -3.64532,-6.954582 -14.04817,-17.226426 -19.05577,-18.815773 -2.29436,-0.728205 -3.5331,-3.430597 -4.87152,-10.627581 -3.28371,-17.65728 -14.48115,-30.894886 -29.5918,-34.983462 -9.54997,-2.583984 -23.42504,-0.848496 -32.13462,4.01938 l -7.41637,4.145091 -2.44769,-3.594294 C 131.47028,24.083516 122.40446,16.810461 112.46976,12.160906 104.02016,8.2063999 100.17227,7.3656995 90.223996,7.3005791 79.932444,7.2332118 76.703278,7.9370185 67.866662,12.173428 56.410687,17.665599 49.677973,23.338949 43.514103,32.694215 c -4.757032,7.220026 -9.016085,22.242768 -9.016085,31.801979 0,5.864746 -0.547413,6.850551 -4.776914,8.602466 C 21.97188,76.308495 12.717804,86.762688 9.7703001,95.636793 4.1395942,112.58926 10.805808,129.99969 26.539873,139.43458 l 8.612052,5.16419 82.083285,0 c 48.98081,0 85.51897,-0.65156 90.60265,-1.61566 z"
     id="path4145"
     inkscape:connector-curvature="0"
     transform="matrix(0.8,0,0,0.80000008,0,-6.1035162e-6)" />
  <path
     style="fill:#000000;fill-opacity:1"
     d="M 29.775643,140.59653 C 20.204811,135.13979 16.062686,131.0188 12.266309,123.17653 4.112034,106.33205 11.904366,83.082708 28.447593,74.897771 34.969127,71.671172 35.26774,71.207613 35.53184,63.900379 36.253919,43.921539 45.705987,26.591281 60.82794,17.520272 73.024674,10.203974 79.793775,7.9422652 89.430748,7.9634284 108.29564,8.0048563 127.27107,18.752039 138.08215,35.518298 c 0.72591,1.125754 2.09086,0.796269 4.05135,-0.977948 4.79896,-4.342999 16.00626,-7.526325 26.49738,-7.526325 19.50121,0 33.20995,12.108561 38.22394,33.762148 1.35553,5.854108 3.42667,10.587564 5.0423,11.523869 6.62557,3.839716 17.17559,14.824208 19.83976,20.65678 3.56928,7.814158 3.78985,19.590658 0.51431,27.460998 -3.37219,8.10257 -14.54881,19.12723 -21.33207,21.04201 -3.22149,0.90936 -41.4218,1.92376 -89.82153,2.38518 l -84.216098,0.80287 -7.105849,-4.05135 z"
     id="path4147"
     inkscape:connector-curvature="0"
     transform="matrix(0.8,0,0,0.80000008,0,-6.1035162e-6)" />
</svg>
