<?xml version="1.0" encoding="UTF-8" standalone="no"?>
<!-- Created with Inkscape (http://www.inkscape.org/) -->

<svg
   xmlns:dc="http://purl.org/dc/elements/1.1/"
   xmlns:cc="http://creativecommons.org/ns#"
   xmlns:rdf="http://www.w3.org/1999/02/22-rdf-syntax-ns#"
   xmlns:svg="http://www.w3.org/2000/svg"
   xmlns="http://www.w3.org/2000/svg"
   xmlns:sodipodi="http://sodipodi.sourceforge.net/DTD/sodipodi-0.dtd"
   xmlns:inkscape="http://www.inkscape.org/namespaces/inkscape"
   width="100%"
   preserveAspectRatio="none"
   viewBox="0 0 101.40487 122.94374"
   id="svg7296"
   version="1.1"
   inkscape:version="0.91 r13725"
   sodipodi:docname="fruit.svg">
  <defs
     id="defs7298" />
  <sodipodi:namedview
     id="base"
     pagecolor="#ffffff"
     bordercolor="#666666"
     borderopacity="1.0"
     inkscape:pageopacity="0.0"
     inkscape:pageshadow="2"
     inkscape:zoom="0.35"
     inkscape:cx="-440.01185"
     inkscape:cy="75.757582"
     inkscape:document-units="px"
     inkscape:current-layer="layer1"
     showgrid="false"
     fit-margin-top="0"
     fit-margin-left="0"
     fit-margin-right="0"
     fit-margin-bottom="0"
     inkscape:window-width="1366"
     inkscape:window-height="749"
     inkscape:window-x="-4"
     inkscape:window-y="-4"
     inkscape:window-maximized="1" />
  <metadata
     id="metadata7301">
    <rdf:RDF>
      <cc:Work
         rdf:about="">
        <dc:format>image/svg+xml</dc:format>
        <dc:type
           rdf:resource="http://purl.org/dc/dcmitype/StillImage" />
        <dc:title></dc:title>
      </cc:Work>
    </rdf:RDF>
  </metadata>
  <g
     inkscape:label="Capa 1"
     inkscape:groupmode="layer"
     id="layer1"
     transform="translate(-315.01185,-485.17605)">
    <path
       d="m 336.74505,494.95605 c 0,0 5.8105,6.185 8.39838,8.9275 2.5855,2.7425 2.67587,2.6 2.7075,4.17125 0.0342,1.5725 -0.53463,2.4 -3.225,3.17625 -2.6915,0.7775 -14.78125,3.38 -21.63088,14.23 -4.187,6.635 -7.5035,12.9625 -7.89062,23.055 -0.38825,10.08875 0.46525,20.18 2.17287,24.75875 1.7065,4.57875 3.56925,11.48875 7.45113,14.98249 3.88087,3.4925 9.39212,10.245 21.65525,13.1175 12.26462,2.8713 12.98337,0.8025 18.4155,-0.5162 2.54062,-0.6175 4.09675,1.49 2.04837,7.2612 2.9785,-2.6062 4.84138,-3.7237 6.88963,-6.8887 -0.559,1.49 8.63775,4.2962 9.30912,2.7925 -5.958,-2.2338 -3.68412,-5.2763 -2.23387,-5.9575 6.44187,-3.0275 10.04787,-1.66 14.08412,-3.9113 4.035,-2.25 6.985,-3.4925 14.43625,-14.43624 7.45375,-10.94375 7.895,-24.295 6.38625,-31.59625 -1.81375,-8.79625 -5.45375,-17.6925 -10.88625,-24.29 -5.435,-6.59875 -8.15125,-9.08125 -14.12775,-12.18625 -5.97662,-3.10625 -9.47025,-3.1825 -10.78862,-3.26125 -1.32075,-0.0763 -5.04638,-0.54125 -7.29738,-0.62 -2.251,-0.0775 -5.58837,-1.39625 -6.59662,-3.64875 -1.00938,-2.25125 0.15525,-6.21 0.542,-8.2275 0.38962,-2.0175 0.85437,-5.27875 1.787,-6.52 0.93025,-1.2425 2.1485,-3.06875 1.94825,-4.1925 -0.78463,1.165 -3.03563,2.485 -4.23825,4.425 -1.24263,1.94125 -2.71725,4.1925 -2.71725,4.92875 -0.34913,-0.62 -0.65925,-1.785 -2.09575,-3.725 -0.66063,-2.28875 -0.81438,-2.87125 -0.42625,-3.765 -0.97163,1.32 -7.80275,6.87 -6.40375,11.13875 -1.1255,-0.77625 -2.75638,-2.60125 -4.96838,-3.33875 -0.93012,-0.27125 -2.52187,-0.8525 -3.49212,-1.5525 -0.97075,-0.6975 -1.59175,-0.775 -2.29,-0.89125 1.04737,1.0475 1.4755,1.2025 1.35837,3.14375 0.271,1.51375 -0.19537,2.8325 -1.04737,2.67625 -0.89363,-0.115 -2.562,-0.735 -3.4165,-1.745 -0.8145,-0.65875 -2.43313,-1.5175 -3.81738,-1.515"
       style="fill:#14191e;fill-opacity:1;fill-rule:nonzero;stroke:none"
       id="path168"
       inkscape:connector-curvature="0" />
  </g>
</svg>
