<?xml version="1.0" encoding="UTF-8" standalone="no"?>
<!--?xml version="1.0" standalone="no"?-->

<svg
   xmlns:dc="http://purl.org/dc/elements/1.1/"
   xmlns:cc="http://creativecommons.org/ns#"
   xmlns:rdf="http://www.w3.org/1999/02/22-rdf-syntax-ns#"
   xmlns:svg="http://www.w3.org/2000/svg"
   xmlns="http://www.w3.org/2000/svg"
   xmlns:sodipodi="http://sodipodi.sourceforge.net/DTD/sodipodi-0.dtd"
   xmlns:inkscape="http://www.inkscape.org/namespaces/inkscape"
   version="1.0"
   width="100%"
   preserveAspectRatio="none"
   viewBox="0 0 291.44778 251.92589"
   id="svg2"
   inkscape:version="0.91 r13725"
   sodipodi:docname="funny-cow.svg">
  <metadata
     id="metadata39">
    <rdf:RDF>
      <cc:Work
         rdf:about="">
        <dc:format>image/svg+xml</dc:format>
        <dc:type
           rdf:resource="http://purl.org/dc/dcmitype/StillImage" />
        <dc:title></dc:title>
      </cc:Work>
    </rdf:RDF>
  </metadata>
  <defs
     id="defs37" />
  <sodipodi:namedview
     pagecolor="#ffffff"
     bordercolor="#666666"
     borderopacity="1"
     objecttolerance="10"
     gridtolerance="10"
     guidetolerance="10"
     inkscape:pageopacity="0"
     inkscape:pageshadow="2"
     inkscape:window-width="1366"
     inkscape:window-height="749"
     id="namedview35"
     showgrid="false"
     fit-margin-top="0"
     fit-margin-left="0"
     fit-margin-right="0"
     fit-margin-bottom="0"
     inkscape:zoom="0.72615385"
     inkscape:cx="182.38881"
     inkscape:cy="157.5"
     inkscape:window-x="-4"
     inkscape:window-y="-4"
     inkscape:window-maximized="1"
     inkscape:current-layer="svg2" />
  <g
     transform="matrix(0.1,0,0,-0.1,-4.0889499,255.92589)"
     id="g4"
     style="fill:#222222;stroke:none">
    <path
       d="m 1159,2543 c -8,-10 -21,-31 -29,-46 -8,-16 -31,-42 -52,-58 l -37,-30 -57,17 c -80,23 -231,16 -298,-14 l -49,-22 -37,25 c -20,14 -43,37 -50,50 -9,16 -22,25 -37,25 -32,0 -53,-51 -53,-128 l 0,-58 -62,-12 C 273,2269 120,2170 65,2076 23,2004 36,1957 103,1945 l 32,-6 -3,-77 c -2,-62 -9,-89 -34,-139 -35,-72 -33,-100 12,-144 22,-23 38,-29 70,-29 36,0 41,-2 35,-17 -20,-50 -24,-79 -15,-114 14,-51 40,-80 96,-109 44,-22 61,-25 164,-25 l 114,0 8,-30 c 4,-16 16,-70 28,-119 11,-49 32,-108 46,-131 27,-46 43,-135 65,-357 11,-115 11,-129 -4,-146 -49,-53 -68,-193 -34,-245 23,-35 33,-34 42,6 l 8,32 6,-45 c 5,-40 9,-45 38,-51 29,-6 102,2 161,16 20,5 22,2 22,-32 0,-41 29,-107 45,-104 6,1 15,16 22,34 l 11,32 1,-46 c 1,-52 9,-59 71,-59 38,0 158,22 192,35 10,4 27,22 39,41 31,50 25,174 -10,223 l -25,34 13,131 c 18,194 9,178 100,170 61,-5 81,-11 102,-30 25,-23 25,-27 16,-90 -11,-77 -1,-110 38,-120 37,-9 71,26 80,82 5,35 10,44 23,42 14,-3 16,-14 13,-76 -4,-91 12,-122 64,-122 44,0 57,23 64,115 6,67 7,70 34,73 25,3 27,1 27,-35 0,-47 23,-83 54,-83 31,0 49,23 62,79 l 10,46 12,-40 c 6,-22 14,-56 19,-75 10,-40 51,-62 82,-43 16,10 17,6 13,-65 -4,-69 -2,-80 19,-106 21,-27 23,-27 30,-10 5,12 8,-2 8,-37 1,-42 7,-63 23,-84 l 21,-27 19,43 18,44 -5,-47 c -5,-40 -3,-48 14,-57 27,-15 72,-14 166,4 96,19 123,41 136,111 15,76 0,144 -42,189 -18,20 -18,26 1,205 32,297 41,353 60,380 72,102 103,217 103,375 0,134 -17,224 -59,307 -20,39 -22,49 -9,38 28,-23 101,-131 129,-191 75,-161 140,-495 104,-537 -42,-48 -78,-198 -78,-329 0,-53 15,-73 23,-30 2,12 5,1 6,-24 0,-25 7,-54 15,-64 13,-18 14,-18 20,3 4,12 12,22 17,22 6,0 16,15 24,33 l 14,32 1,-37 c 0,-50 13,-48 31,5 16,48 20,329 5,362 -5,11 -10,67 -11,125 -4,150 -58,367 -126,501 -74,146 -177,249 -250,249 -11,0 -41,18 -67,39 -59,49 -132,85 -200,100 -32,6 -161,11 -322,11 l -269,0 -36,54 c -82,124 -205,220 -336,262 -46,14 -85,27 -86,28 -1,1 5,22 13,46 26,74 7,176 -41,224 -21,21 -38,20 -56,-1 z m 61,-55 c 23,-51 26,-125 6,-173 -15,-34 -17,-35 -71,-35 -68,0 -89,10 -111,53 -17,31 -17,32 12,52 44,32 104,98 110,123 10,35 33,26 54,-20 z m -658,-72 47,-43 -44,-32 c -53,-38 -71,-39 -78,-3 -6,29 10,122 21,122 4,-1 28,-20 54,-44 z m 388,-10 c 34,-7 54,-16 52,-24 -4,-20 27,-84 48,-99 16,-11 17,-18 9,-37 -14,-30 10,-119 51,-191 37,-65 130,-167 187,-207 l 46,-31 -6,-56 c -22,-206 -48,-274 -136,-361 -52,-51 -82,-71 -141,-95 -70,-28 -83,-30 -210,-30 -106,0 -148,4 -195,19 l -60,20 38,14 c 20,8 37,21 37,28 0,18 -3,18 -53,-7 -32,-17 -66,-23 -148,-27 -98,-4 -110,-3 -154,19 -63,32 -85,61 -85,116 0,65 14,86 53,77 46,-9 47,-11 31,-49 -16,-40 -17,-45 -5,-45 5,0 14,13 19,29 11,32 24,37 161,64 68,13 77,13 122,-4 63,-24 106,-24 147,1 37,23 55,60 46,98 -9,38 -54,102 -72,102 -12,0 -11,-4 5,-22 31,-34 43,-63 43,-102 0,-70 -81,-97 -171,-57 -43,19 -45,19 -124,1 -44,-11 -92,-19 -106,-20 -37,0 -120,30 -126,47 -4,10 -16,12 -47,8 -87,-13 -125,64 -71,143 21,31 25,48 25,110 0,179 95,310 275,381 33,13 78,41 100,62 43,42 55,47 55,26 0,-8 11,-20 25,-27 21,-11 29,-11 50,0 13,7 27,22 31,32 6,20 -11,48 -30,48 -6,0 -5,-4 3,-9 18,-11 5,-31 -20,-31 -27,0 -24,14 11,44 58,49 178,66 290,42 z M 488,2274 c -9,-9 -42,-25 -74,-36 -106,-36 -206,-125 -249,-223 -13,-29 -29,-56 -34,-59 -14,-9 -70,21 -78,41 -14,37 77,148 171,207 62,39 188,83 241,85 36,1 38,0 23,-15 z m 752,-24 c 36,-6 74,-15 85,-20 11,-5 42,-18 68,-29 70,-29 169,-112 232,-193 119,-151 105,-268 -31,-268 -29,0 -56,5 -59,10 -3,6 -15,10 -25,10 -10,0 -54,19 -97,41 -156,83 -250,179 -316,323 -34,75 -36,123 -4,129 41,8 81,7 147,-3 z m 1130,-396 c 114,-55 197,-147 254,-281 24,-57 54,-198 45,-207 -2,-3 -23,0 -46,7 -35,9 -48,8 -80,-7 -58,-27 -83,-66 -108,-171 -13,-51 -25,-98 -29,-103 -3,-5 -25,-15 -50,-21 -60,-15 -106,-67 -106,-121 0,-54 46,-106 108,-123 28,-7 47,-19 52,-32 13,-33 50,-65 82,-72 27,-5 29,-9 24,-37 -3,-17 -11,-93 -17,-169 -11,-119 -15,-140 -32,-149 -24,-13 -156,-13 -169,0 -9,9 -18,49 -63,296 -8,43 -16,80 -18,82 -2,2 -28,-1 -58,-6 -29,-6 -79,-13 -110,-16 -51,-6 -57,-5 -63,13 -4,11 -15,28 -26,38 -11,10 -20,30 -20,45 0,66 -84,114 -159,91 -22,-6 -50,-24 -63,-39 -13,-15 -42,-34 -65,-41 -70,-23 -104,-49 -121,-92 l -16,-41 -45,6 c -162,20 -160,21 -165,-5 -3,-13 -13,-89 -21,-169 -20,-177 -21,-179 -150,-171 -50,3 -65,16 -65,52 0,23 5,29 20,29 30,0 98,37 110,59 15,29 12,93 -5,118 -20,28 -97,57 -130,49 -23,-6 -25,-4 -25,26 0,44 -8,53 -55,68 -131,42 -234,134 -295,263 -34,72 -76,224 -65,235 2,3 26,-1 52,-7 282,-71 575,53 646,274 20,59 47,199 47,238 0,33 4,33 76,0 44,-20 80,-28 140,-31 74,-4 82,-2 109,21 26,22 29,31 29,81 l -1,57 291,-3 291,-3 65,-31 z m 230,-104 c 15,0 92,-70 123,-112 16,-23 45,-73 64,-112 19,-39 38,-78 43,-87 4,-8 22,-69 40,-135 27,-98 33,-141 36,-244 l 3,-125 -10,95 c -16,159 -100,451 -145,501 -8,8 -14,20 -14,25 0,17 -91,124 -124,146 -40,26 -69,65 -41,54 9,-3 20,-6 25,-6 z m 44,-407 c 19,-9 37,-22 40,-28 2,-6 -5,-56 -15,-111 -20,-102 -54,-192 -94,-254 -17,-26 -25,-57 -30,-118 -8,-94 -17,-104 -71,-79 -23,11 -36,26 -41,48 -8,28 -15,34 -56,44 -146,37 -137,190 13,215 38,6 36,2 66,130 21,93 37,122 83,149 44,25 60,26 105,4 z M 780,791 c 0,-82 73,-151 160,-151 l 43,0 -6,-61 c -3,-34 -10,-66 -16,-72 -16,-16 -167,-15 -182,0 -7,7 -20,82 -30,170 -9,87 -20,172 -24,188 l -8,30 32,-29 c 26,-25 31,-37 31,-75 z m 1108,83 c 16,-11 22,-25 22,-50 0,-24 7,-42 24,-57 14,-12 26,-31 28,-42 3,-18 -4,-21 -57,-26 -33,-4 -126,-7 -207,-8 l -148,-1 0,24 c 0,35 44,72 110,92 33,10 60,22 60,26 0,5 11,20 25,33 19,20 34,25 72,25 28,0 58,-7 71,-16 z M 924,744 c 59,-25 66,-32 66,-56 0,-26 -3,-28 -43,-28 -30,0 -56,8 -84,27 -46,29 -63,58 -63,104 l 0,31 29,-25 c 16,-13 59,-37 95,-53 z m 1269,-54 c 3,-14 -5,-29 -29,-50 -19,-16 -39,-30 -44,-30 -13,0 -13,-32 2,-102 11,-55 11,-60 -10,-80 -29,-30 -39,-18 -61,72 l -17,74 -115,-3 c -63,-1 -116,-4 -117,-6 -2,-2 -7,-40 -11,-85 -7,-87 -20,-107 -54,-88 -17,9 -19,19 -16,95 l 4,85 -60,19 c -33,11 -73,30 -88,43 l -28,23 193,6 c 176,6 403,29 416,42 12,11 30,4 35,-15 z M 1173,608 c 19,-23 22,-69 7,-99 -19,-35 -109,-65 -124,-41 -2,4 -7,44 -11,89 -7,80 -7,81 16,85 37,6 92,-11 112,-34 z m 1010,-59 c 4,-35 2,-57 -7,-70 -12,-17 -14,-16 -24,20 -15,49 -15,84 0,99 18,18 25,7 31,-49 z m -571,32 c 25,-13 27,-18 22,-55 -7,-48 -33,-80 -57,-70 -18,6 -21,19 -18,69 2,45 11,77 19,73 4,-2 19,-10 34,-17 z m -592,-43 c 0,-33 -4,-48 -9,-42 -9,8 -4,94 5,94 2,0 4,-23 4,-52 z m 957,-4 c 8,-22 -8,-64 -30,-78 -15,-9 -21,-7 -33,8 -14,20 -19,68 -7,79 13,14 64,7 70,-9 z m 250,-36 c -3,-8 -6,-5 -6,6 -1,11 2,17 5,13 3,-3 4,-12 1,-19 z"
       id="node1"
       class="node"
       inkscape:connector-curvature="0" />
    <path
       d="m 813,2359 c -29,-8 -33,-14 -33,-44 0,-39 28,-65 72,-65 57,0 76,53 33,95 -26,27 -26,27 -72,14 z m 42,-34 c 0,-31 -49,-28 -53,3 -3,20 0,23 25,20 20,-2 28,-8 28,-23 z"
       id="node2"
       class="node"
       inkscape:connector-curvature="0" />
    <path
       d="m 235,1763 c -53,-14 -102,-75 -90,-114 16,-48 87,-44 139,8 25,25 34,66 18,89 -9,15 -42,23 -67,17 z"
       id="node3"
       class="node"
       inkscape:connector-curvature="0" />
    <path
       d="m 533,1760 c -12,-5 -25,-21 -29,-35 -20,-79 125,-165 186,-110 24,22 24,28 5,68 -27,56 -113,97 -162,77 z"
       id="node4"
       class="node"
       inkscape:connector-curvature="0" />
    <path
       d="m 1995,1700 c -11,-4 -40,-14 -64,-21 -97,-29 -134,-114 -73,-171 28,-27 83,-58 102,-58 6,0 29,-20 53,-44 73,-76 156,-70 257,21 85,76 101,165 39,217 -60,51 -246,84 -314,56 z m 243,-40 c 60,-27 92,-57 92,-87 0,-51 -60,-132 -130,-175 -67,-41 -136,-28 -185,36 -15,20 -34,36 -42,36 -20,0 -74,28 -100,53 -29,26 -30,70 -2,98 23,23 77,48 129,60 58,13 186,2 238,-21 z"
       id="node5"
       class="node"
       inkscape:connector-curvature="0" />
    <path
       d="m 1594,1456 c -54,-24 -102,-82 -115,-141 l -12,-53 -53,-11 c -210,-42 -314,-205 -186,-291 34,-23 46,-25 147,-25 103,1 114,3 170,32 33,17 74,45 92,62 19,18 43,31 58,31 75,0 158,67 181,147 31,106 -17,205 -118,247 -45,19 -122,20 -164,2 z m 145,-16 c 40,-11 86,-52 108,-95 20,-38 20,-122 0,-160 -29,-58 -103,-105 -162,-105 -16,0 -39,-13 -59,-32 -55,-55 -136,-89 -224,-95 -98,-7 -152,8 -187,49 -22,26 -26,39 -21,67 11,72 111,141 235,162 l 57,10 13,60 c 23,113 125,172 240,139 z"
       id="node6"
       class="node"
       inkscape:connector-curvature="0" />
    <path
       d="m 2294,582 c -20,-19 -17,-43 9,-77 42,-55 66,-75 90,-75 33,0 87,51 87,82 0,23 -24,66 -44,80 -19,13 -127,5 -142,-10 z m 123,-8 c 40,-8 48,-92 10,-116 -24,-15 -56,-8 -74,18 -10,14 -26,33 -35,42 -34,32 -18,56 39,59 21,1 48,0 60,-3 z"
       id="node7"
       class="node"
       inkscape:connector-curvature="0" />
  </g>
  <g
     transform="matrix(0.1,0,0,-0.1,-4.0889499,255.92589)"
     id="g13"
     style="fill:#86c1ac;stroke:none">
    <path
       d="m 1166,2508 c -6,-25 -66,-91 -110,-123 -29,-20 -29,-21 -12,-52 22,-43 43,-53 111,-53 54,0 56,1 71,35 20,48 17,122 -6,173 -21,46 -44,55 -54,20 z"
       id="node9"
       class="node"
       inkscape:connector-curvature="0" />
    <path
       d="m 492,2413 c -12,-57 -5,-103 15,-103 8,0 34,14 58,31 l 44,32 -47,43 c -26,24 -50,43 -54,44 -3,0 -11,-21 -16,-47 z"
       id="node10"
       class="node"
       inkscape:connector-curvature="0" />
    <path
       d="m 790,2413 c -63,-11 -101,-25 -130,-49 -35,-30 -38,-44 -11,-44 25,0 38,20 20,31 -8,5 -9,9 -3,9 19,0 36,-28 30,-48 -4,-10 -18,-25 -31,-32 -21,-11 -29,-11 -50,0 -14,7 -25,19 -25,27 0,21 -12,16 -55,-26 -22,-21 -67,-49 -100,-62 -180,-71 -275,-202 -275,-381 0,-62 -4,-79 -25,-110 -54,-79 -16,-156 71,-143 31,4 43,2 47,-8 6,-17 89,-47 126,-47 14,1 62,9 106,20 79,18 81,18 124,-1 142,-63 231,46 128,159 -16,18 -17,22 -5,22 18,0 63,-64 72,-102 9,-38 -9,-75 -46,-98 -41,-25 -84,-25 -147,-1 -45,17 -54,17 -122,4 -137,-27 -150,-32 -161,-64 -5,-16 -14,-29 -19,-29 -12,0 -11,5 5,45 16,38 15,40 -31,49 -39,9 -53,-12 -53,-77 0,-55 22,-84 85,-116 44,-22 56,-23 154,-19 82,4 116,10 148,27 50,25 53,25 53,7 0,-7 -17,-20 -37,-28 l -38,-14 60,-20 c 47,-15 89,-19 195,-19 127,0 140,2 210,30 59,24 89,44 141,95 88,87 114,155 136,361 l 6,56 -46,31 c -57,40 -150,142 -187,207 -41,72 -65,161 -51,191 8,19 7,26 -9,37 -21,15 -52,79 -48,99 5,23 -137,44 -212,31 z m 95,-68 c 43,-42 24,-95 -33,-95 -44,0 -72,26 -72,65 0,30 4,36 33,44 46,13 46,13 72,-14 z M 302,1746 c 27,-40 -13,-105 -77,-126 -62,-20 -100,22 -71,78 31,60 121,89 148,48 z m 345,-10 c 29,-19 63,-69 63,-93 0,-6 -9,-18 -20,-28 -61,-55 -206,31 -186,110 12,48 77,54 143,11 z"
       id="node11"
       class="node"
       inkscape:connector-curvature="0" />
    <path
       d="m 802,2328 c 4,-31 53,-34 53,-3 0,15 -8,21 -28,23 -25,3 -28,0 -25,-20 z"
       id="node12"
       class="node"
       inkscape:connector-curvature="0" />
    <path
       d="m 349,2261 c -41,-14 -98,-40 -125,-57 -94,-59 -185,-170 -171,-207 8,-20 64,-50 78,-41 5,3 21,30 34,59 43,98 143,187 249,223 32,11 65,27 74,36 15,15 13,16 -23,15 -22,-1 -74,-13 -116,-28 z"
       id="node13"
       class="node"
       inkscape:connector-curvature="0" />
    <path
       d="m 1093,2253 c -54,-10 -11,-137 96,-280 53,-71 267,-213 321,-213 10,0 22,-4 25,-10 3,-5 30,-10 59,-10 136,0 150,117 31,268 -63,81 -162,164 -232,193 -26,11 -57,24 -68,29 -45,21 -176,34 -232,23 z"
       id="node14"
       class="node"
       inkscape:connector-curvature="0" />
    <path
       d="m 1724,1834 c 0,-50 -3,-59 -29,-81 -27,-23 -35,-25 -109,-21 -60,3 -96,11 -140,31 -72,33 -76,33 -76,0 0,-39 -27,-179 -47,-238 -45,-141 -193,-255 -368,-286 -75,-13 -202,-7 -278,12 -26,6 -50,10 -52,7 -11,-11 31,-163 65,-235 61,-129 164,-221 295,-263 47,-15 55,-24 55,-68 0,-30 2,-32 25,-26 33,8 110,-21 130,-49 17,-25 20,-89 5,-118 -12,-22 -80,-59 -110,-59 -15,0 -20,-6 -20,-29 0,-36 15,-49 65,-52 129,-8 130,-6 150,171 8,80 18,156 21,169 5,26 3,25 165,5 l 45,-6 16,41 c 17,43 51,69 121,92 23,7 52,26 65,41 13,15 41,33 63,39 75,23 159,-25 159,-91 0,-15 9,-35 20,-45 11,-10 22,-27 26,-38 6,-18 12,-19 63,-13 31,3 81,10 110,16 30,5 56,8 58,6 2,-2 10,-39 18,-82 45,-247 54,-287 63,-296 13,-13 145,-13 169,0 17,9 21,30 32,149 6,76 14,152 17,169 5,28 3,32 -24,37 -32,7 -69,39 -82,72 -5,13 -24,25 -52,32 -62,17 -108,69 -108,123 0,54 46,106 106,121 25,6 47,16 50,21 4,5 16,52 29,103 25,105 50,144 108,171 32,15 45,16 80,7 23,-7 44,-10 46,-7 9,9 -21,150 -45,207 -57,134 -140,226 -254,281 l -65,31 -291,3 -291,3 1,-57 z m 489,-144 c 118,-37 156,-92 122,-178 -21,-52 -98,-123 -160,-146 -66,-26 -110,-15 -162,40 -24,24 -47,44 -53,44 -19,0 -74,31 -102,58 -61,57 -24,142 73,171 24,7 53,17 64,21 38,16 151,11 218,-10 z m -455,-236 c 101,-42 149,-141 118,-247 -23,-80 -106,-147 -181,-147 -15,0 -39,-13 -58,-31 -18,-17 -59,-45 -92,-62 -56,-29 -67,-31 -170,-32 -101,0 -113,2 -147,25 -128,86 -24,249 186,291 l 53,11 12,53 c 13,59 61,117 115,141 42,18 119,17 164,-2 z m 678,-862 c 20,-14 44,-57 44,-80 0,-31 -54,-82 -87,-82 -24,0 -48,20 -90,75 -45,58 -23,91 63,93 33,1 64,-2 70,-6 z"
       id="node15"
       class="node"
       inkscape:connector-curvature="0" />
    <path
       d="m 2000,1681 c -165,-37 -200,-131 -73,-195 18,-9 38,-16 46,-16 8,0 27,-16 42,-36 49,-64 118,-77 185,-36 70,43 130,124 130,175 0,54 -99,105 -217,112 -43,2 -94,0 -113,-4 z"
       id="node16"
       class="node"
       inkscape:connector-curvature="0" />
    <path
       d="m 1614,1439 c -55,-16 -102,-72 -115,-138 l -13,-60 -57,-10 c -124,-21 -224,-90 -235,-162 -5,-28 -1,-41 21,-67 35,-41 89,-56 187,-49 88,6 169,40 224,95 20,19 43,32 59,32 34,0 94,26 123,53 37,34 55,77 55,132 0,130 -117,212 -249,174 z"
       id="node17"
       class="node"
       inkscape:connector-curvature="0" />
    <path
       d="m 2310,566 c -15,-15 -12,-30 8,-48 9,-9 25,-28 35,-42 18,-26 50,-33 74,-18 38,24 30,108 -10,116 -34,7 -97,2 -107,-8 z"
       id="node18"
       class="node"
       inkscape:connector-curvature="0" />
    <path
       d="m 2570,1744 c 7,-11 27,-30 46,-42 33,-22 124,-129 124,-146 0,-5 6,-17 14,-25 45,-50 129,-342 145,-501 l 10,-95 -3,125 c -3,103 -9,146 -36,244 -18,66 -36,127 -40,135 -5,9 -24,48 -43,87 -19,39 -48,89 -64,112 -31,42 -108,112 -123,112 -5,0 -16,3 -25,6 -15,6 -15,4 -5,-12 z"
       id="node19"
       class="node"
       inkscape:connector-curvature="0" />
    <path
       d="m 2539,1339 c -46,-27 -62,-56 -83,-149 -30,-128 -28,-124 -66,-130 -80,-13 -129,-68 -115,-128 9,-41 46,-73 102,-87 41,-10 48,-16 56,-44 5,-22 18,-37 41,-48 54,-25 63,-15 71,79 5,61 13,92 30,118 40,62 74,152 94,254 10,55 17,105 15,111 -6,14 -68,45 -92,45 -9,0 -33,-10 -53,-21 z"
       id="node20"
       class="node"
       inkscape:connector-curvature="0" />
    <path
       d="m 725,865 c 4,-16 15,-101 24,-188 10,-88 23,-163 30,-170 15,-15 166,-16 182,0 6,6 13,38 16,72 l 6,61 -43,0 c -87,0 -160,69 -160,151 0,38 -5,50 -31,75 l -32,29 8,-30 z"
       id="node21"
       class="node"
       inkscape:connector-curvature="0" />
    <path
       d="m 1745,865 c -14,-13 -25,-28 -25,-33 0,-4 -27,-16 -60,-26 -66,-20 -110,-57 -110,-92 l 0,-24 148,1 c 81,1 174,4 207,8 53,5 60,8 57,26 -2,11 -14,30 -28,42 -17,15 -24,33 -24,57 0,46 -29,66 -93,66 -38,0 -53,-5 -72,-25 z"
       id="node22"
       class="node"
       inkscape:connector-curvature="0" />
    <path
       d="m 800,791 c 0,-46 17,-75 63,-104 28,-19 54,-27 84,-27 40,0 43,2 43,28 0,24 -7,31 -66,56 -36,16 -79,40 -95,53 l -29,25 0,-31 z"
       id="node23"
       class="node"
       inkscape:connector-curvature="0" />
    <path
       d="m 2158,705 c -13,-13 -240,-36 -416,-42 l -193,-6 28,-23 c 15,-13 55,-32 88,-43 l 60,-19 -4,-85 c -3,-76 -1,-86 16,-95 34,-19 47,1 54,88 4,45 9,83 11,85 1,2 54,5 117,6 l 115,3 17,-74 c 22,-90 32,-102 61,-72 21,20 21,25 10,80 -15,70 -15,102 -2,102 5,0 25,14 44,30 24,21 32,36 29,50 -5,19 -23,26 -35,15 z"
       id="node24"
       class="node"
       inkscape:connector-curvature="0" />
    <path
       d="m 1061,642 c -23,-4 -23,-5 -16,-85 4,-45 9,-85 11,-89 15,-24 105,6 124,41 15,30 12,76 -7,99 -20,23 -75,40 -112,34 z"
       id="node25"
       class="node"
       inkscape:connector-curvature="0" />
    <path
       d="m 1566,578 c -6,-26 -10,-75 -8,-99 3,-26 33,-32 53,-12 9,10 19,36 23,59 6,43 8,40 -56,72 -4,2 -10,-7 -12,-20 z"
       id="node27"
       class="node"
       inkscape:connector-curvature="0" />
    <path
       d="m 1907,543 c -12,-11 -7,-59 7,-79 12,-15 18,-17 33,-8 22,14 38,56 30,78 -6,16 -57,23 -70,9 z"
       id="node29"
       class="node"
       inkscape:connector-curvature="0" />
    <path
       d="m 2221,504 c 0,-11 3,-14 6,-6 3,7 2,16 -1,19 -3,4 -6,-2 -5,-13 z"
       id="node30"
       class="node"
       inkscape:connector-curvature="0" />
  </g>
</svg>
