<?xml version="1.0" encoding="UTF-8" standalone="no"?>
<!-- Created with Inkscape (http://www.inkscape.org/) -->

<svg
   xmlns:dc="http://purl.org/dc/elements/1.1/"
   xmlns:cc="http://creativecommons.org/ns#"
   xmlns:rdf="http://www.w3.org/1999/02/22-rdf-syntax-ns#"
   xmlns:svg="http://www.w3.org/2000/svg"
   xmlns="http://www.w3.org/2000/svg"
   xmlns:sodipodi="http://sodipodi.sourceforge.net/DTD/sodipodi-0.dtd"
   xmlns:inkscape="http://www.inkscape.org/namespaces/inkscape"
   width="100%"
   preserveAspectRatio="none"
   viewBox="0 0 24.362167 24.184744"
   id="svg4177"
   version="1.1"
   inkscape:version="0.91 r13725"
   sodipodi:docname="gear.svg">
  <defs
     id="defs4179" />
  <sodipodi:namedview
     id="base"
     pagecolor="#ffffff"
     bordercolor="#666666"
     borderopacity="1.0"
     inkscape:pageopacity="0.0"
     inkscape:pageshadow="2"
     inkscape:zoom="1.4"
     inkscape:cx="-111.99099"
     inkscape:cy="29.86056"
     inkscape:document-units="px"
     inkscape:current-layer="layer1"
     showgrid="false"
     fit-margin-top="0"
     fit-margin-left="0"
     fit-margin-right="0"
     fit-margin-bottom="0"
     inkscape:window-width="1366"
     inkscape:window-height="749"
     inkscape:window-x="-4"
     inkscape:window-y="-4"
     inkscape:window-maximized="1" />
  <metadata
     id="metadata4182">
    <rdf:RDF>
      <cc:Work
         rdf:about="">
        <dc:format>image/svg+xml</dc:format>
        <dc:type
           rdf:resource="http://purl.org/dc/dcmitype/StillImage" />
        <dc:title></dc:title>
      </cc:Work>
    </rdf:RDF>
  </metadata>
  <g
     inkscape:label="Capa 1"
     inkscape:groupmode="layer"
     id="layer1"
     transform="translate(-453.5332,-651.6984)">
    <g
       transform="matrix(-1,0,0,-1,480.7332,948.79059)"
       id="g4">
      <g
         style="fill:#1b1b1b;stroke:none"
         transform="matrix(0.1,0,0,-0.1,0,300)"
         id="g6">
        <g
           transform="matrix(0.1,0,0,-0.1,0,300)"
           id="g8">
          <path
             inkscape:connector-curvature="0"
             d="m 1013,2672 c -138,-55 -136,-53 -144,-158 -8,-101 -27,-157 -77,-226 -68,-95 -170,-148 -304,-156 -72,-4 -90,-8 -106,-26 -22,-24 -86,-183 -96,-238 -6,-35 -3,-41 50,-99 31,-33 68,-86 82,-118 23,-48 27,-69 27,-151 0,-114 -23,-174 -101,-259 -27,-29 -53,-60 -57,-67 -15,-26 58,-240 96,-281 17,-20 31,-23 87,-23 166,0 313,-98 374,-250 10,-25 21,-83 24,-129 6,-104 13,-112 145,-163 118,-47 158,-49 197,-9 89,88 158,122 265,128 125,8 216,-29 315,-128 35,-36 64,-37 156,-5 171,59 184,71 184,161 0,223 174,395 398,395 58,0 72,3 89,23 23,25 87,182 97,239 6,35 3,41 -50,99 -31,33 -68,86 -83,118 -23,49 -26,68 -25,156 1,122 17,163 104,259 33,37 60,71 60,76 0,15 -51,174 -60,185 -4,6 -11,21 -15,34 -16,53 -44,68 -135,74 -47,3 -105,13 -130,23 -151,60 -250,207 -250,369 0,84 -15,99 -146,149 -119,45 -155,46 -194,7 -58,-57 -107,-90 -168,-110 -146,-50 -311,-5 -410,112 -33,38 -83,35 -199,-11 z m 158,-97 c 72,-68 225,-127 329,-127 98,0 247,59 325,127 21,19 42,35 46,35 18,0 135,-55 147,-69 6,-8 12,-35 12,-60 0,-92 53,-225 118,-294 29,-31 97,-81 149,-109 26,-14 90,-30 230,-54 24,-4 60,-72 70,-132 5,-28 1,-39 -30,-70 -75,-79 -134,-249 -123,-353 12,-104 65,-221 136,-302 33,-38 32,-45 -8,-127 -29,-61 -41,-70 -90,-70 -53,0 -140,-24 -205,-57 -136,-68 -247,-240 -247,-384 0,-59 -17,-78 -98,-113 l -63,-27 -35,31 c -82,71 -199,124 -303,136 -104,11 -274,-48 -353,-123 -31,-31 -42,-35 -70,-30 -59,10 -128,46 -132,70 -31,174 -40,206 -71,257 -51,83 -117,147 -200,191 -35,19 -152,47 -209,51 -34,3 -42,8 -62,43 -12,22 -28,57 -35,77 -12,36 -11,39 28,91 74,97 123,226 123,322 0,89 -63,250 -128,325 -34,40 -34,42 -22,83 6,23 17,48 23,56 6,7 16,23 22,35 6,13 22,22 40,24 59,5 180,35 210,51 165,88 263,240 277,431 3,32 8,38 68,67 36,18 72,33 80,33 8,0 31,-16 51,-35 z"
             id="path10" />
        </g>
        <g
           transform="matrix(0.1,0,0,-0.1,0,300)"
           id="g12">
          <path
             inkscape:connector-curvature="0"
             d="m 1415,2204 c -22,-2 -65,-12 -95,-21 -250,-75 -416,-240 -503,-498 -30,-89 -29,-285 1,-375 85,-253 257,-421 508,-495 81,-24 267,-24 348,0 255,75 427,246 508,505 32,102 30,269 -6,378 -76,235 -235,397 -466,476 -75,25 -207,39 -295,30 z m 260,-131 c 193,-60 327,-193 397,-393 28,-80 28,-271 0,-356 -26,-79 -45,-117 -95,-184 -50,-68 -49,-67 -117,-117 -67,-50 -105,-69 -184,-95 -84,-28 -276,-28 -356,0 -290,101 -446,351 -411,657 29,251 249,475 496,505 81,10 209,2 270,-17 z"
             id="path14" />
        </g>
      </g>
      <g
         style="fill:#a0a0a0;stroke:none"
         transform="matrix(0.1,0,0,-0.1,0,300)"
         id="g16">
        <g
           transform="matrix(0.1,0,0,-0.1,0,300)"
           id="g18">
          <path
             inkscape:connector-curvature="0"
             d="m 1040,2577 c -60,-29 -65,-35 -68,-67 -14,-191 -112,-343 -277,-431 -30,-16 -151,-46 -210,-51 -18,-2 -34,-11 -40,-24 -6,-12 -16,-28 -22,-35 -6,-8 -17,-33 -23,-56 -12,-41 -12,-43 22,-83 65,-75 128,-236 128,-325 0,-96 -49,-225 -123,-322 -39,-52 -40,-55 -28,-91 7,-20 23,-55 35,-77 20,-35 28,-40 62,-43 57,-4 174,-32 209,-51 83,-44 149,-108 200,-191 31,-51 40,-83 71,-257 4,-24 73,-60 132,-70 28,-5 39,-1 70,30 79,75 249,134 353,123 104,-12 221,-65 303,-136 l 35,-31 63,27 c 81,35 98,54 98,113 0,144 111,316 247,384 65,33 152,57 205,57 49,0 61,9 90,70 40,82 41,89 8,127 -71,81 -124,198 -136,302 -11,104 48,274 123,353 31,31 35,42 30,70 -10,60 -46,128 -70,132 -140,24 -204,40 -230,54 -52,28 -120,78 -149,109 -65,69 -118,202 -118,294 0,25 -6,52 -12,60 -12,14 -129,69 -147,69 -4,0 -25,-16 -46,-35 -78,-68 -227,-127 -325,-127 -104,0 -257,59 -329,127 -20,19 -43,35 -51,35 -8,0 -44,-15 -80,-33 z m 670,-403 c 188,-64 323,-179 422,-361 9,-17 29,-69 44,-115 36,-109 38,-276 6,-378 -81,-259 -253,-430 -508,-505 -81,-24 -267,-24 -348,0 -251,74 -423,242 -508,495 -30,90 -31,286 -1,375 87,258 253,423 503,498 113,34 274,30 390,-9 z"
             id="path20" />
        </g>
        <g
           transform="matrix(0.1,0,0,-0.1,0,300)"
           id="g22">
          <path
             inkscape:connector-curvature="0"
             d="m 1405,2090 c -247,-30 -467,-254 -496,-505 -35,-306 121,-556 411,-657 80,-28 272,-28 356,0 79,26 117,45 184,95 68,50 67,49 117,117 50,67 69,105 95,184 28,85 28,276 0,356 -57,164 -158,284 -297,352 -108,54 -238,74 -370,58 z"
             id="path24" />
        </g>
      </g>
    </g>
  </g>
</svg>
