<?xml version="1.0" encoding="UTF-8" standalone="no"?>
<!--?xml version="1.0" standalone="no"?-->

<svg
   xmlns:dc="http://purl.org/dc/elements/1.1/"
   xmlns:cc="http://creativecommons.org/ns#"
   xmlns:rdf="http://www.w3.org/1999/02/22-rdf-syntax-ns#"
   xmlns:svg="http://www.w3.org/2000/svg"
   xmlns="http://www.w3.org/2000/svg"
   xmlns:sodipodi="http://sodipodi.sourceforge.net/DTD/sodipodi-0.dtd"
   xmlns:inkscape="http://www.inkscape.org/namespaces/inkscape"
   version="1.0"
   width="100%"
   preserveAspectRatio="none"
   viewBox="0 0 293.69196 288.50436"
   preserveAspectRatio="xMidYMid meet"
   id="svg2"
   inkscape:version="0.91 r13725"
   sodipodi:docname="graduate-smiley.svg">
  <metadata
     id="metadata21">
    <rdf:RDF>
      <cc:Work
         rdf:about="">
        <dc:format>image/svg+xml</dc:format>
        <dc:type
           rdf:resource="http://purl.org/dc/dcmitype/StillImage" />
        <dc:title></dc:title>
      </cc:Work>
    </rdf:RDF>
  </metadata>
  <defs
     id="defs19" />
  <sodipodi:namedview
     pagecolor="#ffffff"
     bordercolor="#666666"
     borderopacity="1"
     objecttolerance="10"
     gridtolerance="10"
     guidetolerance="10"
     inkscape:pageopacity="0"
     inkscape:pageshadow="2"
     inkscape:window-width="742"
     inkscape:window-height="480"
     id="namedview17"
     showgrid="false"
     fit-margin-top="0"
     fit-margin-left="0"
     fit-margin-right="0"
     fit-margin-bottom="0"
     inkscape:zoom="0.62933333"
     inkscape:cx="183.41805"
     inkscape:cy="174.25546"
     inkscape:window-x="168"
     inkscape:window-y="12"
     inkscape:window-maximized="0"
     inkscape:current-layer="svg2" />
  <g
     transform="matrix(0.1,0,0,-0.1,-1.2655592,299.1)"
     id="g4"
     style="fill:#0d0d0d;stroke:none">
    <path
       class="node"
       id="node1"
       d="M 830,2944 C 783,2919 603,2826 430,2737 5,2520 17,2526 13,2514 c -6,-19 63,-24 476,-34 216,-5 396,-12 399,-14 3,-3 -8,-61 -23,-129 -27,-118 -31,-127 -79,-183 -28,-32 -66,-72 -85,-89 -143,-126 -179,-174 -230,-300 -21,-53 -24,-78 -26,-216 -2,-86 -6,-212 -10,-280 -17,-305 45,-561 182,-756 183,-259 503,-403 903,-407 155,-1 262,15 410,64 420,139 716,481 797,922 46,248 4,559 -102,771 -77,152 -205,312 -314,392 -40,29 -81,97 -97,159 l -7,28 149,-7 149,-6 75,87 c 41,48 88,102 104,121 l 29,34 -34,35 c -60,62 -192,111 -359,134 -47,6 -109,15 -138,19 -77,12 -377,7 -444,-6 -80,-16 -126,-40 -130,-66 -4,-31 -42,-30 -46,1 -2,14 7,32 25,51 120,119 781,95 1041,-38 52,-27 114,-91 106,-110 -3,-9 -17,-59 -29,-111 -96,-388 -95,-387 -63,-424 46,-54 171,-45 223,15 14,17 25,39 25,50 0,19 -44,173 -112,393 l -30,98 44,47 c 111,117 168,190 156,198 -7,4 -258,11 -558,14 -300,4 -754,10 -1010,13 l -465,7 -85,-47 z m 1239,-634 c 127,-31 237,-86 308,-156 145,-143 247,-323 305,-539 17,-63 22,-118 26,-262 5,-208 -8,-293 -65,-453 C 2478,442 2035,140 1530,140 1268,141 1020,210 841,333 680,444 537,664 495,869 c -30,144 -47,395 -28,414 3,4 20,-17 36,-46 97,-173 265,-194 449,-57 108,81 192,201 243,345 24,67 29,96 29,185 1,139 -24,209 -105,291 -76,76 -142,102 -259,101 l -84,0 46,43 c 56,53 135,80 212,72 76,-8 163,-36 194,-62 l 27,-23 41,33 c 109,90 243,141 439,169 64,9 253,-4 334,-24 z M 1021,2038 c 190,-112 229,-359 96,-612 -78,-150 -239,-286 -357,-302 -170,-23 -290,149 -290,417 0,208 89,391 235,481 65,40 96,48 186,45 71,-3 93,-7 130,-29 z"
       inkscape:connector-curvature="0" />
    <path
       class="node"
       id="node2"
       d="m 1533,2115 c -66,-18 -117,-50 -170,-107 -51,-56 -67,-86 -87,-165 -32,-124 -10,-285 61,-431 45,-92 160,-216 239,-255 149,-75 303,-47 426,76 156,156 181,396 66,637 -90,189 -332,299 -535,245 z m 226,-35 c 168,-47 258,-138 318,-320 30,-90 41,-220 24,-285 -34,-134 -126,-251 -238,-303 -153,-70 -336,5 -458,187 -149,225 -149,519 1,650 36,32 100,68 144,82 46,14 135,9 209,-11 z"
       inkscape:connector-curvature="0" />
    <path
       class="node"
       id="node3"
       d="m 1597,1674 c -24,-13 -28,-20 -25,-52 2,-28 10,-40 31,-52 24,-13 30,-13 54,0 45,25 44,87 -2,108 -31,14 -24,15 -58,-4 z"
       inkscape:connector-curvature="0" />
    <path
       class="node"
       id="node4"
       d="m 1762,769 c -241,-74 -589,-77 -805,-8 -112,36 -124,21 -46,-53 95,-92 210,-127 439,-135 145,-5 176,-3 252,16 103,24 168,56 223,108 46,43 77,88 68,97 -10,10 -32,6 -131,-25 z m 58,-28 c 0,-16 -64,-64 -120,-89 -145,-64 -452,-70 -615,-10 -58,21 -151,76 -142,84 2,2 46,-6 98,-18 82,-19 122,-22 309,-22 198,0 224,2 329,27 63,15 117,29 119,32 9,8 22,6 22,-4 z"
       inkscape:connector-curvature="0" />
    <path
       class="node"
       id="node5"
       d="m 912,1654 c -34,-23 -27,-83 11,-104 24,-13 30,-13 55,0 36,20 42,70 13,99 -25,25 -49,27 -79,5 z"
       inkscape:connector-curvature="0" />
  </g>
  <g
     transform="matrix(0.1,0,0,-0.1,-1.2655592,299.1)"
     id="g11"
     style="fill:#9d9d9d;stroke:none">
    <path
       class="node"
       id="node7"
       d="m 1735,2334 c -196,-28 -330,-79 -439,-169 l -41,-33 -27,23 c -31,26 -118,54 -194,62 -77,8 -156,-19 -212,-72 l -46,-43 84,0 c 117,1 183,-25 259,-101 81,-82 106,-152 105,-291 0,-89 -5,-118 -29,-185 -51,-144 -135,-264 -243,-345 -184,-137 -352,-116 -449,57 -16,29 -33,50 -36,46 -19,-19 -2,-270 28,-414 42,-205 185,-425 346,-536 179,-123 427,-192 689,-193 505,0 948,302 1113,760 57,160 70,245 65,453 -4,144 -9,199 -26,262 -58,216 -160,396 -305,539 -109,107 -292,173 -502,180 -60,3 -123,2 -140,0 z m 7,-218 c 198,-42 318,-166 377,-388 51,-188 7,-370 -117,-495 -123,-123 -277,-151 -426,-76 -79,39 -194,163 -239,255 -71,146 -93,307 -61,431 20,79 36,109 87,165 100,107 219,141 379,108 z M 1893,794 c 9,-9 -22,-54 -68,-97 -55,-52 -120,-84 -223,-108 -76,-19 -107,-21 -252,-16 -229,8 -344,43 -439,135 -78,74 -66,89 46,53 216,-69 564,-66 805,8 99,31 121,35 131,25 z"
       inkscape:connector-curvature="0" />
    <path
       class="node"
       id="node8"
       d="m 1550,2091 c -138,-42 -229,-150 -251,-294 -46,-307 186,-648 440,-650 160,-2 314,138 362,328 26,102 -10,292 -77,409 -33,59 -89,115 -148,150 -88,51 -251,80 -326,57 z m 105,-413 c 46,-21 47,-83 2,-108 -24,-13 -30,-13 -54,0 -21,12 -29,24 -31,52 -3,32 1,39 25,52 34,19 27,18 58,4 z"
       inkscape:connector-curvature="0" />
    <path
       class="node"
       id="node9"
       d="m 1798,745 c -2,-3 -56,-17 -119,-32 -105,-25 -131,-27 -329,-27 -187,0 -227,3 -309,22 -52,12 -96,20 -98,18 -9,-8 84,-63 142,-84 163,-60 470,-54 615,10 56,25 120,73 120,89 0,10 -13,12 -22,4 z"
       inkscape:connector-curvature="0" />
    <path
       class="node"
       id="node10"
       d="m 775,2058 c -183,-69 -305,-276 -305,-517 0,-268 120,-440 290,-417 75,10 149,55 235,141 215,215 266,535 112,702 -68,74 -117,97 -216,100 -47,1 -99,-3 -116,-9 z m 216,-409 c 29,-29 23,-79 -13,-99 -25,-13 -31,-13 -55,0 -38,21 -45,81 -11,104 30,22 54,20 79,-5 z"
       inkscape:connector-curvature="0" />
  </g>
</svg>
