<?xml version="1.0" encoding="UTF-8" standalone="no"?>
<!-- Created with Inkscape (http://www.inkscape.org/) -->

<svg
   xmlns:dc="http://purl.org/dc/elements/1.1/"
   xmlns:cc="http://creativecommons.org/ns#"
   xmlns:rdf="http://www.w3.org/1999/02/22-rdf-syntax-ns#"
   xmlns:svg="http://www.w3.org/2000/svg"
   xmlns="http://www.w3.org/2000/svg"
   xmlns:sodipodi="http://sodipodi.sourceforge.net/DTD/sodipodi-0.dtd"
   xmlns:inkscape="http://www.inkscape.org/namespaces/inkscape"
   width="100%"
   preserveAspectRatio="none"
   viewBox="0 0 99.527502 86.04125"
   id="svg4347"
   version="1.1"
   inkscape:version="0.91 r13725"
   sodipodi:docname="maletin.svg">
  <defs
     id="defs4349" />
  <sodipodi:namedview
     id="base"
     pagecolor="#ffffff"
     bordercolor="#666666"
     borderopacity="1.0"
     inkscape:pageopacity="0.0"
     inkscape:pageshadow="2"
     inkscape:zoom="0.98994949"
     inkscape:cx="-180.76235"
     inkscape:cy="143.44115"
     inkscape:document-units="px"
     inkscape:current-layer="layer1"
     showgrid="false"
     fit-margin-top="0"
     fit-margin-left="0"
     fit-margin-right="0"
     fit-margin-bottom="0"
     inkscape:window-width="1366"
     inkscape:window-height="749"
     inkscape:window-x="-4"
     inkscape:window-y="-4"
     inkscape:window-maximized="1" />
  <metadata
     id="metadata4352">
    <rdf:RDF>
      <cc:Work
         rdf:about="">
        <dc:format>image/svg+xml</dc:format>
        <dc:type
           rdf:resource="http://purl.org/dc/dcmitype/StillImage" />
        <dc:title></dc:title>
      </cc:Work>
    </rdf:RDF>
  </metadata>
  <g
     inkscape:label="Capa 1"
     inkscape:groupmode="layer"
     id="layer1"
     transform="translate(-430.23625,-832.19872)">
    <path
       d="m 495.13125,832.19872 -32.21375,0 c -2.65625,0 -4.805,2.14875 -4.805,4.81125 l 0,13.46125 3.6075,0 0,-13.46125 c 0,-0.66125 0.54125,-1.1975 1.1975,-1.1975 l 32.21375,0 c 0.66125,0 1.19625,0.53625 1.19625,1.1975 l 0,13.46125 3.61,0 0,-13.46125 c 0,-2.6625 -2.14625,-4.81125 -4.80625,-4.81125"
       style="fill:#000000;fill-opacity:1;fill-rule:evenodd;stroke:none"
       id="path168"
       inkscape:connector-curvature="0" />
    <path
       d="m 512.27125,868.42747 -7.29875,0 c -2.21125,0 -4,-1.59 -4.03875,-3.56 l -43.775,0 c -0.0387,1.97 -1.82625,3.56 -4.04625,3.56 l -7.2825,0 c -2.21875,0 -4.0075,-1.59 -4.04,-3.56 l -11.55375,0 0,43.75 c 0,5.3175 4.31,9.6225 9.62125,9.6225 l 80.29125,0 c 5.30375,0 9.615,-4.305 9.615,-9.6225 l 0,-43.75 -13.4675,0 c -0.0175,1.97 -1.8125,3.56 -4.025,3.56"
       style="fill:#000000;fill-opacity:1;fill-rule:evenodd;stroke:none"
       id="path170"
       inkscape:connector-curvature="0" />
    <path
       d="m 520.14875,846.12122 -80.29125,0 c -5.31125,0 -9.62125,4.3 -9.62125,9.61625 l 0,4.79875 11.535,0 0,-1.85625 c 0,-2.00125 1.82125,-3.61 4.05875,-3.61 l 7.2825,0 c 2.245,0 4.05875,1.60875 4.05875,3.61 l 0,1.85625 43.7625,0 0,-1.85625 c 0,-2.00125 1.8,-3.61 4.03875,-3.61 l 7.29875,0 c 2.23125,0 4.04375,1.60875 4.04375,3.61 l 0,1.85625 13.44875,0 0,-4.79875 c 0,-5.31625 -4.31125,-9.61625 -9.615,-9.61625"
       style="fill:#000000;fill-opacity:1;fill-rule:evenodd;stroke:none"
       id="path172"
       inkscape:connector-curvature="0" />
    <path
       style="fill:#000000;fill-opacity:1"
       d="M 4.7585292,84.089603 C 0.7607951,81.765773 0.05495344,77.318873 0.05495344,54.456428 l 0,-21.750725 5.31285006,0 c 4.2188483,0 5.5726545,0.416014 6.5745515,2.020305 1.84813,2.959327 12.762863,2.959327 14.610994,0 1.196691,-1.916208 2.355703,-2.020305 22.494003,-2.020305 20.1383,0 21.297312,0.104097 22.494003,2.020305 1.820317,2.914791 11.610151,2.914791 14.105872,0 1.359341,-1.587594 2.979888,-2.020305 7.566258,-2.020305 l 5.836418,0 0,23.156005 0,23.156004 -2.615178,3.107962 -2.615177,3.107962 -43.599302,-0.03072 C 21.095217,85.182399 6.0026526,84.812796 4.7585292,84.089603 Z"
       id="path4905"
       inkscape:connector-curvature="0"
       transform="translate(430.23625,832.19872)" />
    <path
       style="fill:#000000;fill-opacity:1"
       d="M 4.7585292,84.089603 C 0.7607951,81.765773 0.05495344,77.318873 0.05495344,54.456428 l 0,-21.750725 5.05076276,0 c 3.703893,0 5.5895108,0.538748 7.0710678,2.020305 1.481557,1.481558 3.367175,2.020306 7.071068,2.020306 3.703893,0 5.58951,-0.538748 7.071068,-2.020306 1.890545,-1.890545 3.367174,-2.020305 22.990519,-2.020305 19.876213,0 21.036037,0.105398 22.231916,2.020305 1.811686,2.900971 11.246147,2.900971 13.871489,0 1.431091,-1.581337 3.111236,-2.020305 7.732705,-2.020305 l 5.904354,0 0,23.156005 0,23.156004 -2.615178,3.107962 -2.615177,3.107962 -43.599302,-0.03072 C 21.095217,85.182399 6.0026526,84.812796 4.7585292,84.089603 Z"
       id="path4907"
       inkscape:connector-curvature="0"
       transform="translate(430.23625,832.19872)" />
    <rect
       style="fill:#000000;fill-opacity:1"
       id="rect4925"
       width="83.842659"
       height="29.294424"
       x="435.28702"
       y="853.59021" />
    <rect
       style="fill:#000000;fill-opacity:1"
       id="rect4931"
       width="8.0812206"
       height="20.203051"
       x="430.23624"
       y="855.61053" />
    <rect
       style="fill:#000000;fill-opacity:1"
       id="rect4933"
       width="14.142136"
       height="22.223356"
       x="515.08905"
       y="854.60034" />
  </g>
</svg>
