<?xml version="1.0" encoding="UTF-8" standalone="no"?>
<!-- Created with Inkscape (http://www.inkscape.org/) -->

<svg
   xmlns:dc="http://purl.org/dc/elements/1.1/"
   xmlns:cc="http://creativecommons.org/ns#"
   xmlns:rdf="http://www.w3.org/1999/02/22-rdf-syntax-ns#"
   xmlns:svg="http://www.w3.org/2000/svg"
   xmlns="http://www.w3.org/2000/svg"
   xmlns:sodipodi="http://sodipodi.sourceforge.net/DTD/sodipodi-0.dtd"
   xmlns:inkscape="http://www.inkscape.org/namespaces/inkscape"
   width="100%"
   preserveAspectRatio="none"
   viewBox="0 0 31.875 31.875"
   id="svg4159"
   version="1.1"
   inkscape:version="0.91 r13725"
   sodipodi:docname="octagon.svg">
  <defs
     id="defs4161" />
  <sodipodi:namedview
     id="base"
     pagecolor="#ffffff"
     bordercolor="#666666"
     borderopacity="1.0"
     inkscape:pageopacity="0.0"
     inkscape:pageshadow="2"
     inkscape:zoom="0.35"
     inkscape:cx="-503.34822"
     inkscape:cy="4.5089253"
     inkscape:document-units="px"
     inkscape:current-layer="layer1"
     showgrid="false"
     fit-margin-top="0"
     fit-margin-left="0"
     fit-margin-right="0"
     fit-margin-bottom="0"
     inkscape:window-width="1366"
     inkscape:window-height="749"
     inkscape:window-x="-4"
     inkscape:window-y="-4"
     inkscape:window-maximized="1" />
  <metadata
     id="metadata4164">
    <rdf:RDF>
      <cc:Work
         rdf:about="">
        <dc:format>image/svg+xml</dc:format>
        <dc:type
           rdf:resource="http://purl.org/dc/dcmitype/StillImage" />
        <dc:title></dc:title>
      </cc:Work>
    </rdf:RDF>
  </metadata>
  <g
     inkscape:label="Capa 1"
     inkscape:groupmode="layer"
     id="layer1"
     transform="translate(-378.34822,-504.99613)">
    <g
       transform="matrix(1.25,0,0,1.25,375.34822,164.87113)"
       id="g4">
      <g
         style="fill:#010101;stroke:none"
         transform="matrix(0.1,0,0,-0.1,0,300)"
         id="g6">
        <g
           style="stroke-width:20"
           transform="matrix(0.1,0,0,-0.1,0,300)"
           id="g8">
          <path
             inkscape:connector-curvature="0"
             d="m 1000,2753 c -8,-3 -183,-172 -387,-377 l -373,-371 0,-525 0,-524 372,-373 373,-373 530,0 530,0 372,373 373,373 0,525 0,524 -378,378 -377,377 -510,-1 c -281,0 -517,-3 -525,-6 z"
             id="path10" />
        </g>
      </g>
      <g
         style="fill:#ffffff;stroke:none"
         id="g12" />
    </g>
  </g>
</svg>
