<?xml version="1.0" encoding="UTF-8" standalone="no"?>
<!--?xml version="1.0" standalone="no"?-->

<svg
   xmlns:dc="http://purl.org/dc/elements/1.1/"
   xmlns:cc="http://creativecommons.org/ns#"
   xmlns:rdf="http://www.w3.org/1999/02/22-rdf-syntax-ns#"
   xmlns:svg="http://www.w3.org/2000/svg"
   xmlns="http://www.w3.org/2000/svg"
   xmlns:sodipodi="http://sodipodi.sourceforge.net/DTD/sodipodi-0.dtd"
   xmlns:inkscape="http://www.inkscape.org/namespaces/inkscape"
   version="1.0"
   width="100%"

   viewBox="0 0 274.60471 115.98343"
   preserveAspectRatio="none"
   id="svg2"
   inkscape:version="0.91 r13725"
   sodipodi:docname="parallelogram.svg">
  <defs
     id="defs14" />
  <sodipodi:namedview
     pagecolor="#ffffff"
     bordercolor="#666666"
     borderopacity="1"
     objecttolerance="10"
     gridtolerance="10"
     guidetolerance="10"
     inkscape:pageopacity="0"
     inkscape:pageshadow="2"
     inkscape:window-width="742"
     inkscape:window-height="480"
     id="namedview12"
     showgrid="false"
     fit-margin-top="0"
     fit-margin-left="0"
     fit-margin-right="0"
     fit-margin-bottom="0"
     inkscape:zoom="0.62933333"
     inkscape:cx="-106.02223"
     inkscape:cy="51.250208"
     inkscape:window-x="0"
     inkscape:window-y="0"
     inkscape:window-maximized="0"
     inkscape:current-layer="svg2" />
  <metadata
     id="metadata4">
    <rdf:rdf>
      <rdf:description
         dc:title="parallelogram shape"
         dc:publisher="Hiox"
         dc:date="2015-05-14"
         dc:format="image/svg+xml"
         dc:language="en">
        <dc:creator>
          <rdf:bag>
            <rdf:li>svgimages.com</rdf:li>
          </rdf:bag>
        </dc:creator>
      </rdf:description>
    </rdf:rdf>
    <rdf:RDF>
      <cc:Work
         rdf:about="">
        <dc:format>image/svg+xml</dc:format>
        <dc:type
           rdf:resource="http://purl.org/dc/dcmitype/StillImage" />
        <dc:title></dc:title>
      </cc:Work>
    </rdf:RDF>
  </metadata>
  <g
     transform="matrix(0.1,0,0,-0.1,-12.360149,224.98327)"
     id="g6"
     style="fill:#1b0f27;stroke:none">
    <path
       d="m 723,2242 c -12,-7 -37,-53 -150,-272 -87,-167 -186,-357 -238,-455 -24,-44 -75,-143 -115,-220 -40,-77 -79,-149 -86,-159 -32,-47 -61,-46 1070,-46 583,0 1066,4 1072,8 7,4 38,57 69,117 60,116 153,294 240,460 29,55 76,145 105,200 29,55 83,159 121,231 57,109 67,133 53,138 -23,9 -2127,7 -2141,-2 z m 1903,-264 c -47,-90 -110,-210 -139,-268 -98,-191 -259,-495 -266,-503 -4,-4 -439,-6 -968,-5 l -961,3 22,45 c 12,25 50,97 83,160 95,180 153,291 248,475 48,94 98,189 112,213 l 24,42 965,0 965,0 -85,-162 z"
       id="node1"
       class="node"
       inkscape:connector-curvature="0"
       style="stroke-width:20" />
  </g>
  <g
     transform="matrix(0.1,0,0,-0.1,-12.360149,224.98327)"
     id="g9"
     style="fill:#000000;stroke:none;fill-opacity:1">
    <path
       d="M 757,2098 C 743,2074 693,1979 645,1885 550,1701 492,1590 397,1410 364,1347 326,1275 314,1250 l -22,-45 961,-3 c 529,-1 964,1 968,5 7,8 168,312 266,503 29,58 92,178 139,268 l 85,162 -965,0 -965,0 -24,-42 z"
       id="node16"
       class="node"
       inkscape:connector-curvature="0"
       style="stroke-width:20;fill:#000000;fill-opacity:1" />
  </g>
</svg>
