<?xml version="1.0" encoding="UTF-8" standalone="no"?>
<!-- Created with Inkscape (http://www.inkscape.org/) -->

<svg
   xmlns:dc="http://purl.org/dc/elements/1.1/"
   xmlns:cc="http://creativecommons.org/ns#"
   xmlns:rdf="http://www.w3.org/1999/02/22-rdf-syntax-ns#"
   xmlns:svg="http://www.w3.org/2000/svg"
   xmlns="http://www.w3.org/2000/svg"
   xmlns:sodipodi="http://sodipodi.sourceforge.net/DTD/sodipodi-0.dtd"
   xmlns:inkscape="http://www.inkscape.org/namespaces/inkscape"
   width="100%"
   preserveAspectRatio="none"
   viewBox="0 0 17.929434 10.700302"
   id="svg4178"
   version="1.1"
   inkscape:version="0.91 r13725"
   sodipodi:docname="piggy-bank.svg">
  <defs
     id="defs4180" />
  <sodipodi:namedview
     id="base"
     pagecolor="#ffffff"
     bordercolor="#666666"
     borderopacity="1.0"
     inkscape:pageopacity="0.0"
     inkscape:pageshadow="2"
     inkscape:zoom="1.4"
     inkscape:cx="-225.83244"
     inkscape:cy="97.137615"
     inkscape:document-units="px"
     inkscape:current-layer="layer1"
     showgrid="false"
     fit-margin-top="0"
     fit-margin-left="0"
     fit-margin-right="0"
     fit-margin-bottom="0"
     inkscape:window-width="1366"
     inkscape:window-height="749"
     inkscape:window-x="-4"
     inkscape:window-y="-4"
     inkscape:window-maximized="1" />
  <metadata
     id="metadata4183">
    <rdf:RDF>
      <cc:Work
         rdf:about="">
        <dc:format>image/svg+xml</dc:format>
        <dc:type
           rdf:resource="http://purl.org/dc/dcmitype/StillImage" />
        <dc:title></dc:title>
      </cc:Work>
    </rdf:RDF>
  </metadata>
  <g
     inkscape:label="Capa 1"
     inkscape:groupmode="layer"
     id="layer1"
     transform="translate(-496.74957,-758.44063)">
    <g
       style="fill:#0e0e0e;stroke:none"
       transform="matrix(-0.104895,0,0,0.1,520.65802,745.33551)"
       id="g6">
      <g
         transform="matrix(0.1,0,0,-0.1,0,300)"
         id="g16">
        <path
           d="m 800,1680 c 0,-6 20,-31 45,-56 25,-24 45,-50 45,-58 0,-9 -17,-24 -38,-35 -39,-20 -79,-71 -102,-129 -16,-42 -36,-52 -102,-52 -30,0 -59,-5 -66,-12 -8,-8 -12,-50 -12,-125 0,-113 0,-114 26,-123 14,-6 31,-10 38,-9 27,3 40,-5 107,-67 40,-36 93,-76 119,-89 57,-29 182,-65 225,-65 47,0 64,-19 80,-90 27,-120 34,-137 58,-144 70,-19 120,4 133,61 17,81 7,75 139,76 132,0 121,6 139,-76 10,-45 40,-67 90,-67 56,0 66,12 92,113 l 21,80 73,39 c 139,74 211,154 245,273 9,33 30,74 46,93 16,18 29,41 29,52 0,10 11,32 25,48 28,33 31,43 13,39 -7,-1 -14,9 -16,23 -6,36 -20,50 -53,50 -52,0 -65,-61 -24,-106 29,-31 29,-31 10,-64 -15,-28 -14,-28 -36,53 -59,230 -384,402 -692,368 -85,-10 -181,-35 -232,-62 -33,-16 -95,-5 -169,31 -58,28 -82,34 -162,38 -70,3 -94,2 -94,-8 z m 941,-121 c 74,-24 93,-38 83,-63 -5,-12 -14,-16 -28,-12 -12,3 -55,14 -96,26 -108,30 -267,30 -343,1 -40,-15 -67,-14 -74,5 -6,17 6,34 28,38 8,1 32,8 54,14 67,18 96,21 206,16 70,-3 128,-11 170,-25 z m 469,-189 c 0,-11 -4,-20 -10,-20 -5,0 -10,9 -10,20 0,11 5,20 10,20 6,0 10,-9 10,-20 z"
           id="path18"
           inkscape:connector-curvature="0" />
      </g>
    </g>
    <g
       style="fill:#a2a2a2;stroke:none"
       transform="matrix(-0.104895,0,0,0.1,520.65802,745.33551)"
       id="g20">
      <g
         transform="matrix(0.1,0,0,-0.1,0,300)"
         id="g22">
        <path
           d="m 1435,1584 c -16,-3 -48,-10 -70,-16 -22,-6 -46,-13 -54,-14 -22,-4 -34,-21 -28,-38 7,-19 34,-20 74,-5 76,29 235,29 343,-1 41,-12 84,-23 96,-26 26,-7 41,23 22,42 -28,27 -141,54 -247,58 -58,2 -119,2 -136,0 z"
           id="path24"
           inkscape:connector-curvature="0" />
      </g>
      <g
         transform="matrix(0.1,0,0,-0.1,0,300)"
         id="g26">
        <path
           d="m 2190,1370 c 0,-11 5,-20 10,-20 6,0 10,9 10,20 0,11 -4,20 -10,20 -5,0 -10,-9 -10,-20 z"
           id="path28"
           inkscape:connector-curvature="0" />
      </g>
    </g>
  </g>
</svg>
