<?xml version="1.0" encoding="UTF-8" standalone="no"?>
<!-- Created with Inkscape (http://www.inkscape.org/) -->

<svg
   xmlns:dc="http://purl.org/dc/elements/1.1/"
   xmlns:cc="http://creativecommons.org/ns#"
   xmlns:rdf="http://www.w3.org/1999/02/22-rdf-syntax-ns#"
   xmlns:svg="http://www.w3.org/2000/svg"
   xmlns="http://www.w3.org/2000/svg"
   xmlns:sodipodi="http://sodipodi.sourceforge.net/DTD/sodipodi-0.dtd"
   xmlns:inkscape="http://www.inkscape.org/namespaces/inkscape"
   width="100%"
   preserveAspectRatio="none"
   viewBox="0 0 131.4675 103.8511"
   id="svg4944"
   version="1.1"
   inkscape:version="0.91 r13725"
   sodipodi:docname="piggybank.svg">
  <defs
     id="defs4946" />
  <sodipodi:namedview
     id="base"
     pagecolor="#ffffff"
     bordercolor="#666666"
     borderopacity="1.0"
     inkscape:pageopacity="0.0"
     inkscape:pageshadow="2"
     inkscape:zoom="0.7"
     inkscape:cx="-357.9035"
     inkscape:cy="39.068475"
     inkscape:document-units="px"
     inkscape:current-layer="layer1"
     showgrid="false"
     fit-margin-top="0"
     fit-margin-left="0"
     fit-margin-right="0"
     fit-margin-bottom="0"
     inkscape:window-width="1366"
     inkscape:window-height="749"
     inkscape:window-x="-4"
     inkscape:window-y="-4"
     inkscape:window-maximized="1" />
  <metadata
     id="metadata4949">
    <rdf:RDF>
      <cc:Work
         rdf:about="">
        <dc:format>image/svg+xml</dc:format>
        <dc:type
           rdf:resource="http://purl.org/dc/dcmitype/StillImage" />
        <dc:title></dc:title>
      </cc:Work>
    </rdf:RDF>
  </metadata>
  <g
     inkscape:label="Capa 1"
     inkscape:groupmode="layer"
     id="layer1"
     transform="translate(-337.12344,-720.4367)">
    <path
       d="m 417.20214,782.33545 c -0.7775,1.545 -1.775,2.76625 -2.9975,3.67125 -1.21875,0.9075 -2.97625,1.59 -5.2675,2.055 l 0,6.4575 -4.65375,0 0,-6.31375 c -2.16,-0.2375 -4.00375,-0.7725 -5.5175,-1.58875 -2.08125,-1.13375 -4.01375,-2.63125 -5.7925,-4.5025 l 4.7025,-4.7125 c 3.01375,3.14 5.9375,4.7125 8.7575,4.7125 1.44,0 2.66875,-0.485 3.7025,-1.4625 1.02875,-0.97625 1.54875,-2.12375 1.54875,-3.4425 0,-1.11375 -0.33375,-2.09 -0.99125,-2.9275 -0.67625,-0.84 -1.98,-1.69375 -3.91,-2.5675 -3.93,-1.7725 -6.58375,-3.17875 -7.97,-4.2225 -1.3825,-1.035 -2.41875,-2.20125 -3.10625,-3.5025 -0.685,-1.29625 -1.0275,-2.6775 -1.0275,-4.1475 0,-2.43125 0.90875,-4.51875 2.72125,-6.25 1.8125,-1.73375 4.1075,-2.66375 6.8825,-2.79125 l 0,-2.41875 4.65375,0 0,2.72875 c 1.59625,0.3725 2.95625,0.8725 4.0675,1.50125 1.11375,0.63125 2.43,1.695 3.9525,3.19125 l -4.7825,4.545 c -2.175,-2.19 -4.3275,-3.29 -6.455,-3.29 -1.25625,0 -2.275,0.33 -3.05875,0.98375 -0.78375,0.6525 -1.17125,1.40875 -1.17125,2.25875 0,0.725 0.34125,1.4425 1.03625,2.15375 0.6725,0.72625 2.04625,1.49625 4.10875,2.32125 3.66125,1.48375 6.17,2.74875 7.5225,3.79625 1.35125,1.04875 2.3925,2.30625 3.12,3.77125 0.72625,1.4675 1.0875,3.11125 1.0875,4.93625 0,1.82 -0.38875,3.50375 -1.1625,5.05625 z m 43.94625,-21.79875 c -0.2675,0 -0.5225,0.055 -0.7875,0.0875 -5.1175,-20.84375 -27.00625,-36.51375 -53.2475,-36.51375 -10.9675,0 -21.155,2.75875 -29.695,7.46625 l -11.90875,-11.14 -0.9325,21.005 c -4.4075,4.67125 -7.74875,10.07625 -9.73125,15.96875 -0.0175,-0.0125 -0.0325,-0.0225 -0.0537,-0.0337 0,0 -5.1,10.65 -17.66875,12.3475 l 4.5625,18.16375 c 0,0 6.42125,-0.93875 21.01,8.51625 l 0,-0.0212 c 4.3475,5.19125 9.9425,9.56125 16.41375,12.85 l 4.25875,13.59 c 0,0 6.70125,2.69625 13.00875,0.7725 l 0.565,-8.59125 c 3.3025,0.52875 6.68875,0.83 10.17125,0.83 4.5225,0 8.88875,-0.51875 13.09125,-1.39125 l 0.6075,9.1525 c 6.30125,1.92375 13.0025,-0.7725 13.0025,-0.7725 l 4.87625,-15.56125 c 11.6075,-7.00375 19.775,-17.7425 22.08125,-30.1475 0.12875,0.003 0.2475,0.0412 0.37625,0.0412 4.10875,0 7.4425,-3.71875 7.4425,-8.3125 0,-4.5875 -3.33375,-8.30625 -7.4425,-8.30625"
       style="fill:#000000;fill-opacity:1;fill-rule:nonzero;stroke:none"
       id="path40"
       inkscape:connector-curvature="0" />
    <rect
       style="fill:#000000;fill-opacity:1"
       id="rect5498"
       width="42.857143"
       height="58.57143"
       x="385.71429"
       y="740.93365" />
  </g>
</svg>
